<svg xmlns="http://www.w3.org/2000/svg" width="36" height="50" viewBox="0 0 36 50">
  <metadata><?xpacket begin="﻿" id="W5M0MpCehiHzreSzNTczkc9d"?>
<x:xmpmeta xmlns:x="adobe:ns:meta/" x:xmptk="Adobe XMP Core 5.6-c138 79.159824, 2016/09/14-01:09:01        ">
   <rdf:RDF xmlns:rdf="http://www.w3.org/1999/02/22-rdf-syntax-ns#">
      <rdf:Description rdf:about=""/>
   </rdf:RDF>
</x:xmpmeta>
                                                                                                    
                                                                                                    
                                                                                                    
                                                                                                    
                                                                                                    
                                                                                                    
                                                                                                    
                                                                                                    
                                                                                                    
                                                                                                    
                                                                                                    
                                                                                                    
                                                                                                    
                                                                                                    
                                                                                                    
                                                                                                    
                                                                                                    
                                                                                                    
                                                                                                    
                                                                                                    
                           
<?xpacket end="w"?></metadata>
<defs>
    <style>
      .cls-1 {
        fill: #232853;
        fill-rule: evenodd;
      }
    </style>
  </defs>
  <path id="Фигура_30" data-name="Фигура 30" class="cls-1" d="M1022,2452a17.913,17.913,0,0,0-18,17.79c0,9.51,16.5,30.91,17.2,31.82a1.016,1.016,0,0,0,1.6,0c0.7-.91,17.2-22.31,17.2-31.82A17.913,17.913,0,0,0,1022,2452Zm0,47.34c-1.43-1.9-4.56-6.16-7.65-11.01-5.45-8.52-8.34-14.93-8.34-18.54a15.986,15.986,0,0,1,31.97,0c0,3.61-2.88,10.02-8.33,18.54C1026.56,2493.18,1023.43,2497.44,1022,2499.34Zm0-39.98a10.436,10.436,0,1,0,10.56,10.43A10.51,10.51,0,0,0,1022,2459.36Zm0,18.88a8.446,8.446,0,1,1,8.54-8.45A8.5,8.5,0,0,1,1022,2478.24Zm-8.97-17.27a1.023,1.023,0,0,0,.68-0.25,12.5,12.5,0,0,1,13.23-2.15,1.006,1.006,0,0,0,1.32-.51,0.985,0.985,0,0,0-.52-1.31,14.515,14.515,0,0,0-15.38,2.49,0.977,0.977,0,0,0-.08,1.4A1.017,1.017,0,0,0,1013.03,2460.97Zm-2.42,1.8a1.017,1.017,0,0,0-1.36.42,14.177,14.177,0,0,0-1.64,6.6,1.01,1.01,0,0,0,2.02,0,12.028,12.028,0,0,1,1.41-5.67A0.992,0.992,0,0,0,1010.61,2462.77Z" transform="translate(-1004 -2452)"/>
</svg>
