<svg xmlns="http://www.w3.org/2000/svg" width="76.85" height="67.06" viewBox="0 0 76.85 67.06">
  <metadata><?xpacket begin="﻿" id="W5M0MpCehiHzreSzNTczkc9d"?>
<x:xmpmeta xmlns:x="adobe:ns:meta/" x:xmptk="Adobe XMP Core 5.6-c138 79.159824, 2016/09/14-01:09:01        ">
   <rdf:RDF xmlns:rdf="http://www.w3.org/1999/02/22-rdf-syntax-ns#">
      <rdf:Description rdf:about=""/>
   </rdf:RDF>
</x:xmpmeta>
                                                                                                    
                                                                                                    
                                                                                                    
                                                                                                    
                                                                                                    
                                                                                                    
                                                                                                    
                                                                                                    
                                                                                                    
                                                                                                    
                                                                                                    
                                                                                                    
                                                                                                    
                                                                                                    
                                                                                                    
                                                                                                    
                                                                                                    
                                                                                                    
                                                                                                    
                                                                                                    
                           
<?xpacket end="w"?></metadata>
<defs>
    <style>
      .cls-1 {
        fill: #151846;
        fill-rule: evenodd;
      }
    </style>
  </defs>
  <path id="Фигура_3" data-name="Фигура 3" class="cls-1" d="M1191.87,1424.45a1.5,1.5,0,0,0-1.5,1.5v18.55a1.5,1.5,0,0,0,3,0v-18.55A1.5,1.5,0,0,0,1191.87,1424.45Zm4.9-29.71a7.554,7.554,0,1,0-10.37.21,14.147,14.147,0,0,0-9.04,13.07v12.05a7.078,7.078,0,0,0,6.51,6.97v17.46a1.5,1.5,0,0,0,3,0v-36.07a1.5,1.5,0,0,0-3,0v15.59a4.063,4.063,0,0,1-3.51-3.95v-12.05a11.512,11.512,0,0,1,23.01,0v12.05a4.065,4.065,0,0,1-3.29,3.92v-15.56a1.5,1.5,0,0,0-3,0v36.07a1.5,1.5,0,0,0,3,0v-17.48a7.077,7.077,0,0,0,6.29-6.95v-12.05A14.162,14.162,0,0,0,1196.77,1394.74Zm-5.3-.83a4.555,4.555,0,1,1,4.56-4.56A4.556,4.556,0,0,1,1191.47,1393.91Zm28.26-13.35-7.19-1.58a1.5,1.5,0,1,0-.64,2.93l3.63,0.8-5.7,3.61a1.5,1.5,0,0,0,.81,2.76,1.479,1.479,0,0,0,.8-0.23l5.72-3.63-0.79,3.62a1.5,1.5,0,0,0,1.14,1.79,1.816,1.816,0,0,0,.32.03,1.514,1.514,0,0,0,1.47-1.18l1.57-7.13A1.5,1.5,0,0,0,1219.73,1380.56Zm-13.9,8.57a1.5,1.5,0,1,1-1.5,1.5A1.5,1.5,0,0,1,1205.83,1389.13Zm16.8,48.78-1.57-7.14a1.5,1.5,0,1,0-2.93.65l0.79,3.62-5.72-3.63a1.5,1.5,0,1,0-1.61,2.53l5.7,3.61-3.64.8a1.5,1.5,0,0,0,.33,2.97,1.219,1.219,0,0,0,.32-0.04l7.19-1.58A1.5,1.5,0,0,0,1222.63,1437.91Zm-15.04-9.78a1.5,1.5,0,1,1-1.5,1.5A1.5,1.5,0,0,1,1207.59,1428.13Zm22.37-18.71-5.23-5.18a1.5,1.5,0,1,0-2.11,2.13l2.64,2.62-6.74.01a1.5,1.5,0,0,0,0,3h0l6.78-.01-2.61,2.63a1.505,1.505,0,0,0,1.06,2.56,1.483,1.483,0,0,0,1.07-.45l5.15-5.19A1.5,1.5,0,0,0,1229.96,1409.42Zm-17.13-.42a1.5,1.5,0,1,1-1.5,1.5A1.5,1.5,0,0,1,1212.83,1409Zm-38.66-22.68-5.7-3.61,3.63-.8a1.5,1.5,0,1,0-.64-2.93l-7.19,1.58a1.5,1.5,0,0,0-1.14,1.79l1.57,7.13a1.5,1.5,0,0,0,1.47,1.18,1.816,1.816,0,0,0,.32-0.03,1.5,1.5,0,0,0,1.14-1.79l-0.79-3.62,5.72,3.63a1.479,1.479,0,0,0,.8.23A1.5,1.5,0,0,0,1174.17,1386.32Zm4,2.81a1.5,1.5,0,1,1-1.5,1.5A1.5,1.5,0,0,1,1178.17,1389.13Zm-5.3,42.74a1.5,1.5,0,0,0-2.07-.46l-5.72,3.63,0.79-3.62a1.5,1.5,0,1,0-2.93-.65l-1.57,7.14a1.5,1.5,0,0,0,1.14,1.79l7.19,1.58a1.219,1.219,0,0,0,.32.04,1.5,1.5,0,0,0,.33-2.97l-3.64-.8,5.7-3.61A1.5,1.5,0,0,0,1172.87,1431.87Zm3.54-3.74a1.5,1.5,0,1,1-1.5,1.5A1.5,1.5,0,0,1,1176.41,1428.13ZM1165.48,1409l-6.74-.01,2.64-2.62a1.5,1.5,0,0,0-2.11-2.13l-5.23,5.18a1.5,1.5,0,0,0-.01,2.12l5.15,5.19a1.485,1.485,0,0,0,2.12.01,1.5,1.5,0,0,0,.01-2.12l-2.61-2.63,6.78,0.01h0A1.5,1.5,0,0,0,1165.48,1409Zm5.69,0a1.5,1.5,0,1,1-1.5,1.5A1.5,1.5,0,0,1,1171.17,1409Z" transform="translate(-1153.59 -1378.94)"/>
</svg>
