<svg xmlns="http://www.w3.org/2000/svg" width="20" height="18.03" viewBox="0 0 20 18.03">
  <metadata><?xpacket begin="﻿" id="W5M0MpCehiHzreSzNTczkc9d"?>
<x:xmpmeta xmlns:x="adobe:ns:meta/" x:xmptk="Adobe XMP Core 5.6-c138 79.159824, 2016/09/14-01:09:01        ">
   <rdf:RDF xmlns:rdf="http://www.w3.org/1999/02/22-rdf-syntax-ns#">
      <rdf:Description rdf:about=""/>
   </rdf:RDF>
</x:xmpmeta>
                                                                                                    
                                                                                                    
                                                                                                    
                                                                                                    
                                                                                                    
                                                                                                    
                                                                                                    
                                                                                                    
                                                                                                    
                                                                                                    
                                                                                                    
                                                                                                    
                                                                                                    
                                                                                                    
                                                                                                    
                                                                                                    
                                                                                                    
                                                                                                    
                                                                                                    
                                                                                                    
                           
<?xpacket end="w"?></metadata>
<defs>
    <style>
      .cls-1 {
        fill: #0387fd;
        fill-rule: evenodd;
      }
    </style>
  </defs>
  <path id="Фигура_33" data-name="Фигура 33" class="cls-1" d="M1080.98,6344.79a0.34,0.34,0,0,0-.01-0.1,0.433,0.433,0,0,0-.21-0.27l-2.86-1.92v-2.06a0.51,0.51,0,0,0-.51-0.5h-3.29l-2.81-1.87a0.531,0.531,0,0,0-.58-0.01l-2.82,1.88h-3.28a0.51,0.51,0,0,0-.51.5v2.03l-2.88,1.92a0.473,0.473,0,0,0-.22.4v0.01l0.02,10.71a0.485,0.485,0,0,0,.15.35,0.506,0.506,0,0,0,.36.14h0l18.96-.03a0.5,0.5,0,0,0,.51-0.49Zm-3.08-1.09,1.64,1.1-1.64,1.09v-2.19Zm-6.9-4.63,1.3,0.87h-2.61Zm-5.88,1.86h11.76v5.65l-3.95,2.65-1.61-1.21h-0.01a0.525,0.525,0,0,0-.62,0l-1.62,1.22-3.95-2.64v-5.67Zm-1.02,2.74v2.25l-1.69-1.12Zm-2.07,2.07,6.19,4.13-6.18,4.63Zm1,9.27,7.98-5.97,7.95,5.95Zm10.75-5.15,6.18-4.14,0.01,8.78Zm0.69-6.95h-6.94a0.5,0.5,0,1,0,0,.99h6.94A0.5,0.5,0,1,0,1074.47,6342.91Zm0,2.57h-6.94a0.5,0.5,0,0,0-.51.49,0.51,0.51,0,0,0,.51.5h6.94a0.51,0.51,0,0,0,.51-0.5A0.5,0.5,0,0,0,1074.47,6345.48Z" transform="translate(-1061 -6337.97)"/>
</svg>
