<svg xmlns="http://www.w3.org/2000/svg" width="69" height="69" viewBox="0 0 69 69">
  <metadata><?xpacket begin="﻿" id="W5M0MpCehiHzreSzNTczkc9d"?>
<x:xmpmeta xmlns:x="adobe:ns:meta/" x:xmptk="Adobe XMP Core 5.6-c138 79.159824, 2016/09/14-01:09:01        ">
   <rdf:RDF xmlns:rdf="http://www.w3.org/1999/02/22-rdf-syntax-ns#">
      <rdf:Description rdf:about=""/>
   </rdf:RDF>
</x:xmpmeta>
                                                                                                    
                                                                                                    
                                                                                                    
                                                                                                    
                                                                                                    
                                                                                                    
                                                                                                    
                                                                                                    
                                                                                                    
                                                                                                    
                                                                                                    
                                                                                                    
                                                                                                    
                                                                                                    
                                                                                                    
                                                                                                    
                                                                                                    
                                                                                                    
                                                                                                    
                                                                                                    
                           
<?xpacket end="w"?></metadata>
<defs>
    <style>
      .cls-1 {
        fill: #151846;
        fill-rule: evenodd;
      }
    </style>
  </defs>
  <path id="Фигура_5" data-name="Фигура 5" class="cls-1" d="M1422.18,1420a3.505,3.505,0,1,0,3.5,3.5A3.5,3.5,0,0,0,1422.18,1420Zm0,4.31a0.81,0.81,0,1,1,0-1.62A0.81,0.81,0,1,1,1422.18,1424.31Zm10.81-8.78a1.339,1.339,0,0,0-.95-0.39,1.349,1.349,0,0,0-1.35,1.34,1.371,1.371,0,0,0,.4.96,1.356,1.356,0,0,0,.95.39,1.339,1.339,0,0,0,.95-0.39A1.34,1.34,0,0,0,1432.99,1415.53Zm17.27-21.13h-1.46l-19-19.01a1.364,1.364,0,0,0-1.91,0l-4.87,4.87-19.47-5.22a1.351,1.351,0,0,0-1.65.96l-4.93,18.4h-3.31a5.659,5.659,0,0,0-5.65,5.66v37.2a6.741,6.741,0,0,0,6.73,6.74h55.52a6.741,6.741,0,0,0,6.73-6.74v-36.12A6.747,6.747,0,0,0,1450.26,1394.4Zm-1.21,2.7h1.21a4.042,4.042,0,0,1,4.04,4.04v10.8a3.2,3.2,0,0,1-3.19,3.2h-1.39v-5.37a6.754,6.754,0,0,0-6.6-6.74Zm-24.67-14.38h0l4.47-4.47,17.62,17.63-7.11,7.1h-2.47l3.23-3.22a1.364,1.364,0,0,0,0-1.91,2.794,2.794,0,0,1,0-3.95,1.364,1.364,0,0,0,0-1.91l-7.39-7.39a1.346,1.346,0,0,0-1.91,0,2.794,2.794,0,0,1-3.95,0,1.346,1.346,0,0,0-1.91,0l-18.38,18.38h-2.46Zm-3.97,15.2a6.442,6.442,0,0,0-6.28,5.06h-3.74l15.64-15.64a5.515,5.515,0,0,0,5.63,0l5.72,5.72a5.515,5.515,0,0,0,0,5.63l-4.3,4.29h-6.39A6.426,6.426,0,0,0,1420.41,1397.92Zm3.48,5.06h-6.95A3.738,3.738,0,0,1,1423.89,1402.98Zm-21.2-2.38,3.57-13.32a5.534,5.534,0,0,0,2.82-.74,5.321,5.321,0,0,0,2.05-2.08l6.07,1.63-8.8,8.8Zm1.46-22.6,16.67,4.46-1.42,1.43-8.71-2.34a1.352,1.352,0,0,0-1.02.14,1.334,1.334,0,0,0-.63.82,2.765,2.765,0,0,1-1.3,1.69,2.737,2.737,0,0,1-2.13.28,1.36,1.36,0,0,0-1.65.96l-4.71,17.59h-1.8Zm-10.49,19.1h2.59l-1.59,5.93h-1A2.965,2.965,0,0,1,1393.66,1397.1Zm60.64,40.16a4.042,4.042,0,0,1-4.04,4.04h-1.89a6.655,6.655,0,0,0,1.35-4.04v-5.41h0.81a6.406,6.406,0,0,0,3.77-1.22v6.63Zm0-11.88a3.773,3.773,0,0,1-3.77,3.77h-28.3a5.66,5.66,0,0,1,0-11.32h4.08a1.345,1.345,0,1,0,0-2.69h-4.08a8.355,8.355,0,0,0,0,16.71h24.79v5.41a4.057,4.057,0,0,1-3.98,4.05h-45.87v-15.18a1.35,1.35,0,0,0-2.7,0v15.17a4.054,4.054,0,0,1-3.77-4.04v-32.38a5.553,5.553,0,0,0,2.96.84h49.32a4.05,4.05,0,0,1,4.04,4.05v5.37h-9.74a1.345,1.345,0,1,0,0,2.69h13.83a5.909,5.909,0,0,0,3.19-.94v8.49h0Zm-57.53-5.46a1.348,1.348,0,0,0-.95-0.4,1.35,1.35,0,1,0,0,2.7,1.339,1.339,0,0,0,.95-0.39A1.34,1.34,0,0,0,1396.77,1419.92Z" transform="translate(-1388 -1375)"/>
</svg>
