<svg xmlns="http://www.w3.org/2000/svg" width="89.41" height="89.81" viewBox="0 0 89.41 89.81">
  <metadata><?xpacket begin="﻿" id="W5M0MpCehiHzreSzNTczkc9d"?>
<x:xmpmeta xmlns:x="adobe:ns:meta/" x:xmptk="Adobe XMP Core 5.6-c138 79.159824, 2016/09/14-01:09:01        ">
   <rdf:RDF xmlns:rdf="http://www.w3.org/1999/02/22-rdf-syntax-ns#">
      <rdf:Description rdf:about=""/>
   </rdf:RDF>
</x:xmpmeta>
                                                                                                    
                                                                                                    
                                                                                                    
                                                                                                    
                                                                                                    
                                                                                                    
                                                                                                    
                                                                                                    
                                                                                                    
                                                                                                    
                                                                                                    
                                                                                                    
                                                                                                    
                                                                                                    
                                                                                                    
                                                                                                    
                                                                                                    
                                                                                                    
                                                                                                    
                                                                                                    
                           
<?xpacket end="w"?></metadata>
<defs>
    <style>
      .cls-1 {
        fill: #3270fe;
        fill-rule: evenodd;
      }
    </style>
  </defs>
  <path id="Фигура_17" data-name="Фигура 17" class="cls-1" d="M1097.24,5477.4h-35.35a1.754,1.754,0,0,0-1.76,1.75,2.926,2.926,0,0,1-2.93,2.92h-5.85a2.932,2.932,0,0,1-2.93-2.92,1.748,1.748,0,0,0-1.76-1.75H1019.2v-45.09a3.668,3.668,0,0,1,3.67-3.65h21.94l0.01,0.15-3.65,3.44-0.04.04a16.738,16.738,0,0,0-4.95,11.93v7.83a1.756,1.756,0,0,0,1.04,1.6,1.644,1.644,0,0,0,.72.16,1.746,1.746,0,0,0,1.17-.46l7.7-6.92a1.747,1.747,0,0,0,1.02.8,22.856,22.856,0,0,0,6.36.92h0.08a22.994,22.994,0,0,0,6.44-.92,1.783,1.783,0,0,0,1.04-.84l7.74,6.96a1.752,1.752,0,0,0,1.18.46,1.749,1.749,0,0,0,1.75-1.76v-7.83a16.755,16.755,0,0,0-4.95-11.93l-3.38-3.37,0.03-.26h21.61a3.668,3.668,0,0,1,3.67,3.65v32.17a1.76,1.76,0,0,0,3.52,0v-32.17a7.185,7.185,0,0,0-7.19-7.16h-21.2a29.077,29.077,0,0,0-7.5-21.84l-0.31-.34a3,3,0,0,0-2.22-.98h-0.02a3,3,0,0,0-2.23,1.02l-0.59.66a29.253,29.253,0,0,0-7.21,21.48h-21.58a7.185,7.185,0,0,0-7.19,7.16v45.09h-4.32a1.754,1.754,0,0,0-1.76,1.75v2.74a9.961,9.961,0,0,0,9.96,9.93h69.48a9.961,9.961,0,0,0,9.96-9.93v-2.74A1.754,1.754,0,0,0,1097.24,5477.4Zm-34.55-37.43,0.84-6.65,1.45,1.45a13.26,13.26,0,0,1,3.93,9.45v3.89l-6.51-5.86Zm-8.39-33.98,0.21-.23a25.646,25.646,0,0,1,6.39,20.37l-0.41,3.2h0l-1.69,13.39h0l-0.18,1.43a19.288,19.288,0,0,1-4.35.5h-0.06a19.67,19.67,0,0,1-4.26-.49l-1.38-13.35-0.16-1.5h0l-0.39-3.72A25.754,25.754,0,0,1,1054.3,5405.99Zm-8.08,36.25-6.52,5.87v-3.89a13.244,13.244,0,0,1,3.9-9.43l1.68-1.58Zm42.82,46.07h-69.48a6.438,6.438,0,0,1-6.44-6.42v-0.98h32.03a6.461,6.461,0,0,0,6.2,4.67h5.85a6.464,6.464,0,0,0,6.21-4.67h32.07v0.98h0A6.438,6.438,0,0,1,1089.04,5488.31Zm-5.04-55.74h-8.85a1.755,1.755,0,1,0,0,3.51h7.09v33.99h-55.29v-33.99h5.58a1.755,1.755,0,1,0,0-3.51h-7.34a1.763,1.763,0,0,0-1.76,1.76v37.5a1.754,1.754,0,0,0,1.76,1.75H1084a1.754,1.754,0,0,0,1.76-1.75v-37.5A1.763,1.763,0,0,0,1084,5432.57Zm-29.7-13.81a1.755,1.755,0,1,1-1.76,1.75A1.754,1.754,0,0,1,1054.3,5418.76Zm36.86,51.61a1.755,1.755,0,1,1-1.76,1.76A1.763,1.763,0,0,1,1091.16,5470.37Zm-41.43-19.67a1.763,1.763,0,0,0-1.76,1.76v7.14a1.76,1.76,0,0,0,3.52,0v-7.14A1.763,1.763,0,0,0,1049.73,5450.7Zm8.93-.4a1.754,1.754,0,0,0-1.76,1.75v10.53a1.76,1.76,0,0,0,3.52,0v-10.53A1.754,1.754,0,0,0,1058.66,5450.3Z" transform="translate(-1009.59 -5402)"/>
</svg>
