<svg xmlns="http://www.w3.org/2000/svg" width="41" height="41" viewBox="0 0 41 41">
  <metadata><?xpacket begin="﻿" id="W5M0MpCehiHzreSzNTczkc9d"?>
<x:xmpmeta xmlns:x="adobe:ns:meta/" x:xmptk="Adobe XMP Core 5.6-c138 79.159824, 2016/09/14-01:09:01        ">
   <rdf:RDF xmlns:rdf="http://www.w3.org/1999/02/22-rdf-syntax-ns#">
      <rdf:Description rdf:about=""/>
   </rdf:RDF>
</x:xmpmeta>
                                                                                                    
                                                                                                    
                                                                                                    
                                                                                                    
                                                                                                    
                                                                                                    
                                                                                                    
                                                                                                    
                                                                                                    
                                                                                                    
                                                                                                    
                                                                                                    
                                                                                                    
                                                                                                    
                                                                                                    
                                                                                                    
                                                                                                    
                                                                                                    
                                                                                                    
                                                                                                    
                           
<?xpacket end="w"?></metadata>
<defs>
    <style>
      .cls-1 {
        fill: #12173f;
        fill-rule: evenodd;
      }
    </style>
  </defs>
  <path id="Фигура_12" data-name="Фигура 12" class="cls-1" d="M687,14a20.5,20.5,0,1,0,6,14.5A20.366,20.366,0,0,0,687,14ZM672.5,47.366A18.867,18.867,0,1,1,691.367,28.5,18.888,18.888,0,0,1,672.5,47.366Zm0-36.147A17.281,17.281,0,1,0,689.781,28.5,17.3,17.3,0,0,0,672.5,11.219ZM686.439,35.6l-2.355-1.36a0.817,0.817,0,1,0-.817,1.414l2.353,1.358a15.787,15.787,0,0,1-4.6,4.6l-1.358-2.353a0.817,0.817,0,0,0-1.415.817l1.36,2.355a15.531,15.531,0,0,1-6.288,1.687V41.4a0.817,0.817,0,0,0-1.634,0v2.722a15.531,15.531,0,0,1-6.288-1.687l1.36-2.355a0.817,0.817,0,1,0-1.414-.817l-1.358,2.353a15.775,15.775,0,0,1-4.6-4.6l2.352-1.358a0.817,0.817,0,1,0-.817-1.414l-2.355,1.36a15.524,15.524,0,0,1-1.687-6.288H659.6a0.817,0.817,0,0,0,0-1.633h-2.722a15.523,15.523,0,0,1,1.687-6.288l2.355,1.36a0.817,0.817,0,1,0,.817-1.415l-2.353-1.358a15.78,15.78,0,0,1,4.6-4.6l1.358,2.352a0.817,0.817,0,0,0,1.415-.817l-1.36-2.355a15.535,15.535,0,0,1,6.288-1.687V15.6a0.817,0.817,0,0,0,1.634,0V12.874a15.535,15.535,0,0,1,6.288,1.687l-1.36,2.355a0.817,0.817,0,1,0,1.414.817l1.359-2.352a15.764,15.764,0,0,1,4.6,4.6l-2.352,1.358a0.817,0.817,0,1,0,.817,1.414l2.355-1.36a15.541,15.541,0,0,1,1.687,6.288H685.4a0.817,0.817,0,0,0,0,1.634h2.722A15.524,15.524,0,0,1,686.439,35.6Zm-13.122-9.379v-5.24a0.817,0.817,0,0,0-1.634,0v5.24a2.414,2.414,0,0,0-1.026,3.833l-1.3,2.246a0.817,0.817,0,0,0,1.415.817l1.3-2.244A2.416,2.416,0,0,0,673.317,26.226ZM672.5,29.283a0.783,0.783,0,1,1,.783-0.782A0.783,0.783,0,0,1,672.5,29.283Zm0-11.809a0.817,0.817,0,0,0-.817.817v0.327a0.817,0.817,0,0,0,1.634,0V18.291A0.817,0.817,0,0,0,672.5,17.474Z" transform="translate(-652 -8)"/>
</svg>
