<svg xmlns="http://www.w3.org/2000/svg" width="55.62" height="56.32" viewBox="0 0 55.62 56.32">
  <metadata><?xpacket begin="﻿" id="W5M0MpCehiHzreSzNTczkc9d"?>
<x:xmpmeta xmlns:x="adobe:ns:meta/" x:xmptk="Adobe XMP Core 5.6-c138 79.159824, 2016/09/14-01:09:01        ">
   <rdf:RDF xmlns:rdf="http://www.w3.org/1999/02/22-rdf-syntax-ns#">
      <rdf:Description rdf:about=""/>
   </rdf:RDF>
</x:xmpmeta>
                                                                                                    
                                                                                                    
                                                                                                    
                                                                                                    
                                                                                                    
                                                                                                    
                                                                                                    
                                                                                                    
                                                                                                    
                                                                                                    
                                                                                                    
                                                                                                    
                                                                                                    
                                                                                                    
                                                                                                    
                                                                                                    
                                                                                                    
                                                                                                    
                                                                                                    
                                                                                                    
                           
<?xpacket end="w"?></metadata>
<defs>
    <style>
      .cls-1 {
        fill: #8060ea;
        fill-rule: evenodd;
      }
    </style>
  </defs>
  <path id="Фигура_25" data-name="Фигура 25" class="cls-1" d="M1097.03,4694.26l-9.6-10.86a1.123,1.123,0,0,0-.82-0.37h-34.22a1.123,1.123,0,0,0-.82.37l-9.6,10.86a1.1,1.1,0,0,0-.18,1.18,1.2,1.2,0,0,0,.29.38h0l26.6,29.97a1.094,1.094,0,0,0,1.64,0l26.6-29.97h0a1.2,1.2,0,0,0,.29-0.38A1.1,1.1,0,0,0,1097.03,4694.26Zm-12.37-9.03-4.89,7.88-7.84-7.88h12.73Zm-7.23,8.65h-15.86l7.93-7.97Zm-10.36-8.65-7.83,7.88-4.9-7.88h12.73Zm-14.85.76,4.9,7.89h-11.88Zm-6.96,10.09h13l8.99,24.78Zm26.53,24.74,6.28-16.98a1.1,1.1,0,1,0-2.06-.77l-6.5,17.58-8.91-24.57h33.14Zm10.09-26.94,4.9-7.89,6.98,7.89h-11.88Zm-12.38-24.04a1.1,1.1,0,0,0-1.1,1.1v5.67a1.1,1.1,0,0,0,2.2,0v-5.67A1.1,1.1,0,0,0,1069.5,4669.84Zm10.02,4.35a1.092,1.092,0,0,0-1.55,0l-4.01,4a1.1,1.1,0,0,0,0,1.56,1.1,1.1,0,0,0,1.55,0l4.01-4.01A1.092,1.092,0,0,0,1079.52,4674.19Zm-14.69,4-4.01-4a1.1,1.1,0,0,0-1.56,0,1.092,1.092,0,0,0,0,1.55l4.01,4.01a1.111,1.111,0,0,0,1.56,0A1.1,1.1,0,0,0,1064.83,4678.19Zm13.63,20.07a1.1,1.1,0,1,1-1.1,1.1A1.1,1.1,0,0,1,1078.46,4698.26Z" transform="translate(-1041.69 -4669.84)"/>
</svg>
