<svg xmlns="http://www.w3.org/2000/svg" width="60" height="56" viewBox="0 0 60 56">
  <metadata><?xpacket begin="﻿" id="W5M0MpCehiHzreSzNTczkc9d"?>
<x:xmpmeta xmlns:x="adobe:ns:meta/" x:xmptk="Adobe XMP Core 5.6-c138 79.159824, 2016/09/14-01:09:01        ">
   <rdf:RDF xmlns:rdf="http://www.w3.org/1999/02/22-rdf-syntax-ns#">
      <rdf:Description rdf:about=""/>
   </rdf:RDF>
</x:xmpmeta>
                                                                                                    
                                                                                                    
                                                                                                    
                                                                                                    
                                                                                                    
                                                                                                    
                                                                                                    
                                                                                                    
                                                                                                    
                                                                                                    
                                                                                                    
                                                                                                    
                                                                                                    
                                                                                                    
                                                                                                    
                                                                                                    
                                                                                                    
                                                                                                    
                                                                                                    
                                                                                                    
                           
<?xpacket end="w"?></metadata>
<defs>
    <style>
      .cls-1 {
        fill: #2e67ea;
        fill-rule: evenodd;
      }
    </style>
  </defs>
  <path id="Фигура_28" data-name="Фигура 28" class="cls-1" d="M1412.21,4425.36a1.2,1.2,0,1,0,1.17,1.19A1.182,1.182,0,0,0,1412.21,4425.36Zm51.87,3.95a4.449,4.449,0,0,0-4.13-.56c-0.01,0-.02.01-0.03,0.01l-11.07,4.42a4.922,4.922,0,0,0,.04-0.67,4.731,4.731,0,0,0-4.69-4.76h-7.59a1.139,1.139,0,0,1-.57-0.16l-6.19-3.54a8.154,8.154,0,0,0-4.03-1.07h-7.75v-1.19a1.182,1.182,0,0,0-1.17-1.19h-9.73a1.176,1.176,0,0,0-1.17,1.19v21.45a1.176,1.176,0,0,0,1.17,1.19h9.73a1.182,1.182,0,0,0,1.17-1.19v-1.19h0.88l11.18,4.6a17.963,17.963,0,0,0,14.42-.31l0.01-.01,18.64-9.01A4.633,4.633,0,0,0,1464.08,4429.31Zm-48.36,12.74h-7.38v-19.07h7.38v19.07Zm46.57-6.93a0.488,0.488,0,0,1-.07.03l-18.65,9.02a15.7,15.7,0,0,1-12.56.27l-11.39-4.69a1.117,1.117,0,0,0-.44-0.09h-1.11v-14.3h7.75a5.831,5.831,0,0,1,2.88.77l6.19,3.54a3.462,3.462,0,0,0,1.72.46h7.59a2.367,2.367,0,0,1,2.35,2.38,2.4,2.4,0,0,1-1.12,2.03l-0.01.01a0.921,0.921,0,0,0-.24.13,2.34,2.34,0,0,1-.98.22h-11.91a3.549,3.549,0,0,0-3.52,3.57,1.175,1.175,0,1,0,2.35,0,1.182,1.182,0,0,1,1.17-1.19h11.91a4.587,4.587,0,0,0,2.24-.58l14.32-5.71a2.1,2.1,0,0,1,1.98.27A2.228,2.228,0,0,1,1462.29,4435.12Zm-50.08-4.99a1.176,1.176,0,0,0-1.17,1.19v7.15a1.17,1.17,0,1,0,2.34,0v-7.15A1.176,1.176,0,0,0,1412.21,4430.13Zm40.2-19.07a7.151,7.151,0,1,0,7.03,7.15A7.1,7.1,0,0,0,1452.41,4411.06Zm0,11.92a4.766,4.766,0,1,1,4.69-4.77A4.733,4.733,0,0,1,1452.41,4422.98Zm-4.69-30.99a7.151,7.151,0,1,0,7.03,7.15A7.1,7.1,0,0,0,1447.72,4391.99Zm0,11.92a4.766,4.766,0,1,1,4.69-4.77A4.74,4.74,0,0,1,1447.72,4403.91Zm-14.06,2.38a7.156,7.156,0,1,0,7.03,7.16A7.109,7.109,0,0,0,1433.66,4406.29Zm0,11.92a4.766,4.766,0,1,1,4.68-4.76A4.731,4.731,0,0,1,1433.66,4418.21Z" transform="translate(-1406 -4392)"/>
</svg>
