<svg xmlns="http://www.w3.org/2000/svg" width="74.562" height="76.82" viewBox="0 0 74.562 76.82">
  <metadata><?xpacket begin="﻿" id="W5M0MpCehiHzreSzNTczkc9d"?>
<x:xmpmeta xmlns:x="adobe:ns:meta/" x:xmptk="Adobe XMP Core 5.6-c138 79.159824, 2016/09/14-01:09:01        ">
   <rdf:RDF xmlns:rdf="http://www.w3.org/1999/02/22-rdf-syntax-ns#">
      <rdf:Description rdf:about=""/>
   </rdf:RDF>
</x:xmpmeta>
                                                                                                    
                                                                                                    
                                                                                                    
                                                                                                    
                                                                                                    
                                                                                                    
                                                                                                    
                                                                                                    
                                                                                                    
                                                                                                    
                                                                                                    
                                                                                                    
                                                                                                    
                                                                                                    
                                                                                                    
                                                                                                    
                                                                                                    
                                                                                                    
                                                                                                    
                                                                                                    
                           
<?xpacket end="w"?></metadata>
<defs>
    <style>
      .cls-1 {
        fill: #26d7d4;
        fill-rule: evenodd;
      }
    </style>
  </defs>
  <path id="Фигура_1" data-name="Фигура 1" class="cls-1" d="M983.368,1419.82a1.5,1.5,0,1,1-1.5,1.49A1.5,1.5,0,0,1,983.368,1419.82Zm-57.147,0a1.5,1.5,0,1,1-1.5,1.49A1.5,1.5,0,0,1,926.221,1419.82Zm65.052,24.58H978.382l-0.079-36.87a1.5,1.5,0,0,0-1.5-1.49h0a1.5,1.5,0,0,0-1.5,1.5l0.079,36.86h-4.361l-0.039-16.4a1.5,1.5,0,0,0-1.5-1.5h0a1.5,1.5,0,0,0-1.5,1.5l0.039,16.4h-3.646v-19.86a8.226,8.226,0,0,0,7.592-8.1V1401.9a16.3,16.3,0,0,0-1.43-6.67,12.446,12.446,0,0,1,7.848,3.46,11.613,11.613,0,0,1,3.614,8.39l0.027,8.54a1.494,1.494,0,0,0,1.5,1.49h0a1.494,1.494,0,0,0,1.5-1.5L985,1407.07a14.587,14.587,0,0,0-4.531-10.54,15.283,15.283,0,0,0-5.794-3.52,7.927,7.927,0,0,0-5.471-13.68h-0.018a7.9,7.9,0,0,0-3.663.9,1.5,1.5,0,0,0,1.393,2.66,4.861,4.861,0,0,1,2.277-.56,4.935,4.935,0,1,1,.021,9.87,1.2,1.2,0,0,0-.19.02,1.927,1.927,0,0,0-.24.01,17.054,17.054,0,0,0-8.683-6.21,8.807,8.807,0,1,0-11.33.23,16.99,16.99,0,0,0-8,5.97c-0.238-.01-0.475-0.02-0.712-0.02-0.112,0-.224,0-0.336.01a0.228,0.228,0,0,0-.082-0.01,4.935,4.935,0,1,1,2.356-9.28,1.5,1.5,0,1,0,1.434-2.63,7.933,7.933,0,0,0-9.006,12.95,14.951,14.951,0,0,0-9.7,13.87v8.5a1.5,1.5,0,0,0,3,0v-8.5A12.085,12.085,0,0,1,939,1395.25a16.283,16.283,0,0,0-1.423,6.65v14.54a8.235,8.235,0,0,0,7.844,8.12v19.84h-4.09V1428a1.5,1.5,0,0,0-3,0v16.4H934.64v-36.85a1.5,1.5,0,0,0-3,0v36.85h-11.91a1.5,1.5,0,1,0,0,3h71.546A1.5,1.5,0,1,0,991.273,1444.4Zm-42.783-65a5.806,5.806,0,1,1,5.806,5.8A5.809,5.809,0,0,1,948.49,1379.4Zm14.378,21.51a1.5,1.5,0,0,0-1.5,1.5v41.99h-5.347v-20.87a1.5,1.5,0,0,0-3,0v20.87h-4.589v-41.99a1.5,1.5,0,0,0-3,0v19.15a5.237,5.237,0,0,1-4.842-5.12V1401.9a13.291,13.291,0,0,1,2.186-7.3,14.458,14.458,0,0,1,24.015.01,13.313,13.313,0,0,1,2.175,7.29v14.54a5.222,5.222,0,0,1-4.589,5.09v-19.12A1.5,1.5,0,0,0,962.868,1400.91Z" transform="translate(-918.219 -1370.59)"/>
</svg>
