<svg xmlns="http://www.w3.org/2000/svg" width="76.188" height="76.82" viewBox="0 0 76.188 76.82">
  <metadata><?xpacket begin="﻿" id="W5M0MpCehiHzreSzNTczkc9d"?>
<x:xmpmeta xmlns:x="adobe:ns:meta/" x:xmptk="Adobe XMP Core 5.6-c138 79.159824, 2016/09/14-01:09:01        ">
   <rdf:RDF xmlns:rdf="http://www.w3.org/1999/02/22-rdf-syntax-ns#">
      <rdf:Description rdf:about=""/>
   </rdf:RDF>
</x:xmpmeta>
                                                                                                    
                                                                                                    
                                                                                                    
                                                                                                    
                                                                                                    
                                                                                                    
                                                                                                    
                                                                                                    
                                                                                                    
                                                                                                    
                                                                                                    
                                                                                                    
                                                                                                    
                                                                                                    
                                                                                                    
                                                                                                    
                                                                                                    
                                                                                                    
                                                                                                    
                                                                                                    
                           
<?xpacket end="w"?></metadata>
<defs>
    <style>
      .cls-1 {
        fill: #151846;
        fill-rule: evenodd;
      }
    </style>
  </defs>
  <path id="Фигура_2" data-name="Фигура 2" class="cls-1" d="M529.6,1432.07H499.47a1.5,1.5,0,0,0-1.5,1.5,2.5,2.5,0,0,1-2.5,2.5h-4.983a2.5,2.5,0,0,1-2.5-2.5,1.5,1.5,0,0,0-1.5-1.5H463.082v-38.55a3.126,3.126,0,0,1,3.124-3.12h18.7l0.014,0.13-3.116,2.94-0.031.03a14.35,14.35,0,0,0-4.223,10.2v6.7a1.5,1.5,0,0,0,.89,1.37,1.451,1.451,0,0,0,.609.13,1.473,1.473,0,0,0,1-.39l6.562-5.92a1.5,1.5,0,0,0,.868.68,19.535,19.535,0,0,0,5.424.8h0.067a19.268,19.268,0,0,0,5.49-.8,1.47,1.47,0,0,0,.883-0.71l6.6,5.95a1.473,1.473,0,0,0,1,.39,1.451,1.451,0,0,0,.609-0.13,1.5,1.5,0,0,0,.89-1.37v-6.7a14.35,14.35,0,0,0-4.223-10.2l-2.881-2.88,0.028-.22h18.421a3.126,3.126,0,0,1,3.124,3.12v27.51a1.5,1.5,0,1,0,3,0v-27.51a6.132,6.132,0,0,0-6.123-6.12H501.719a24.918,24.918,0,0,0-6.389-18.67l-0.264-.29a2.58,2.58,0,0,0-1.9-.84h-0.019a2.567,2.567,0,0,0-1.9.87l-0.5.56a25.053,25.053,0,0,0-6.146,18.37h-18.4a6.132,6.132,0,0,0-6.123,6.12v38.55H456.4a1.5,1.5,0,0,0-1.5,1.5v2.34a8.5,8.5,0,0,0,8.489,8.49h59.222a8.5,8.5,0,0,0,8.489-8.49v-2.34A1.5,1.5,0,0,0,529.6,1432.07Zm-29.448-32,0.716-5.68,1.236,1.24a11.322,11.322,0,0,1,3.345,8.07v3.33l-5.543-5.01ZM493,1371.02l0.172-.2a21.934,21.934,0,0,1,5.447,17.42l-0.344,2.73h0l-1.444,11.46h0l-0.153,1.21a15.928,15.928,0,0,1-3.7.43h-0.057a16.987,16.987,0,0,1-3.625-.42l-1.181-11.41-0.133-1.28h0l-0.33-3.18A22.016,22.016,0,0,1,493,1371.02Zm-6.894,30.99-5.559,5.02v-3.33a11.356,11.356,0,0,1,3.33-8.06l1.429-1.35Zm36.5,39.39H463.389a5.5,5.5,0,0,1-5.49-5.49v-0.84h27.3a5.5,5.5,0,0,0,5.29,4h4.982a5.5,5.5,0,0,0,5.29-4H528.1v0.84h0A5.5,5.5,0,0,1,522.611,1441.4Zm-4.293-47.65H510.77a1.5,1.5,0,0,0,0,3h6.049v29.06H469.684v-29.06h4.756a1.5,1.5,0,1,0,0-3h-6.255a1.5,1.5,0,0,0-1.5,1.5v32.06a1.5,1.5,0,0,0,1.5,1.5h50.133a1.5,1.5,0,0,0,1.5-1.5v-32.06A1.5,1.5,0,0,0,518.318,1393.75ZM493,1381.94a1.5,1.5,0,1,1-1.5,1.5A1.5,1.5,0,0,1,493,1381.94Zm31.418,44.13a1.5,1.5,0,1,1-1.5,1.5A1.5,1.5,0,0,1,524.418,1426.07ZM489.1,1409.25a1.5,1.5,0,0,0-1.5,1.5v6.1a1.5,1.5,0,1,0,3,0v-6.1A1.5,1.5,0,0,0,489.1,1409.25Zm7.618-.35a1.5,1.5,0,0,0-1.5,1.5v9a1.5,1.5,0,1,0,3,0v-9A1.5,1.5,0,0,0,496.719,1408.9Z" transform="translate(-454.906 -1367.59)"/>
</svg>
