<svg xmlns="http://www.w3.org/2000/svg" width="41" height="41" viewBox="0 0 41 41">
  <metadata><?xpacket begin="﻿" id="W5M0MpCehiHzreSzNTczkc9d"?>
<x:xmpmeta xmlns:x="adobe:ns:meta/" x:xmptk="Adobe XMP Core 5.6-c138 79.159824, 2016/09/14-01:09:01        ">
   <rdf:RDF xmlns:rdf="http://www.w3.org/1999/02/22-rdf-syntax-ns#">
      <rdf:Description rdf:about=""/>
   </rdf:RDF>
</x:xmpmeta>
                                                                                                    
                                                                                                    
                                                                                                    
                                                                                                    
                                                                                                    
                                                                                                    
                                                                                                    
                                                                                                    
                                                                                                    
                                                                                                    
                                                                                                    
                                                                                                    
                                                                                                    
                                                                                                    
                                                                                                    
                                                                                                    
                                                                                                    
                                                                                                    
                                                                                                    
                                                                                                    
                           
<?xpacket end="w"?></metadata>
<defs>
    <style>
      .cls-1 {
        fill: #12173f;
        fill-rule: evenodd;
      }
    </style>
  </defs>
  <path id="Фигура_13" data-name="Фигура 13" class="cls-1" d="M1152.5,8A20.5,20.5,0,1,0,1173,28.5,20.5,20.5,0,0,0,1152.5,8Zm0,39.292A18.792,18.792,0,1,1,1171.29,28.5,18.789,18.789,0,0,1,1152.5,47.292Zm0-35.021A16.229,16.229,0,1,0,1168.73,28.5,16.232,16.232,0,0,0,1152.5,12.271Zm0,30.75A14.521,14.521,0,1,1,1167.02,28.5,14.52,14.52,0,0,1,1152.5,43.021Zm-11.96-15.375h1.71v1.708h-1.71V27.646Zm22.21,0h1.71v1.708h-1.71V27.646Zm-1.99,5.009a4.9,4.9,0,0,1-3.67,3.28v1.41a0.652,0.652,0,0,1-.65.655h-2.61a0.66,0.66,0,0,1-.66-0.655v-1.31h-1.3v1.31a0.652,0.652,0,0,1-.65.655h-2.61a0.652,0.652,0,0,1-.65-0.655v-1.31h-1.31a0.652,0.652,0,0,1-.65-0.655V32.759a0.652,0.652,0,0,1,.65-0.655h1.31V30.138h-1.31a0.652,0.652,0,0,1-.65-0.655V26.862a0.652,0.652,0,0,1,.65-0.655h1.31V24.9h-1.31a0.652,0.652,0,0,1-.65-0.655V21.621a0.652,0.652,0,0,1,.65-0.655h1.31v-1.31a0.652,0.652,0,0,1,.65-0.655h2.61a0.652,0.652,0,0,1,.65.655v1.31h1.3v-1.31a0.66,0.66,0,0,1,.66-0.655h2.61a0.652,0.652,0,0,1,.65.655v1.5a4.567,4.567,0,0,1,2.64,6.674A4.92,4.92,0,0,1,1160.76,32.655Zm-2.3-4.246a0.664,0.664,0,0,1-.08-0.891,3.262,3.262,0,0,0-2.05-5.2,0.655,0.655,0,0,1-.55-0.646V20.31h-1.3v1.311a0.652,0.652,0,0,1-.65.655h-2.61a0.652,0.652,0,0,1-.65-0.655V20.31h-1.31v1.311a0.652,0.652,0,0,1-.65.655h-1.31v1.311h1.31a0.652,0.652,0,0,1,.65.655v2.621a0.652,0.652,0,0,1-.65.655h-1.31v1.31h1.31a0.652,0.652,0,0,1,.65.655v3.276a0.652,0.652,0,0,1-.65.655h-1.31v1.311h1.31a0.652,0.652,0,0,1,.65.655v1.31h1.31V35.38a0.652,0.652,0,0,1,.65-0.655h2.61a0.652,0.652,0,0,1,.65.655v1.31h1.3V35.367a0.66,0.66,0,0,1,.61-0.653A3.6,3.6,0,0,0,1158.46,28.41Zm-2.35,5h-4.89a0.652,0.652,0,0,1-.65-0.655V29.483a0.652,0.652,0,0,1,.65-0.655h4.89A2.293,2.293,0,0,1,1156.11,33.414Zm0-3.276h-4.24V32.1h4.24A0.983,0.983,0,0,0,1156.11,30.138Zm-0.33-2.621h-4.56a0.633,0.633,0,0,1-.46-0.192,0.626,0.626,0,0,1-.19-0.463V24.241a0.652,0.652,0,0,1,.65-0.655h4.56A1.966,1.966,0,0,1,1155.78,27.517Zm0-2.621h-3.91v1.311h3.91A0.655,0.655,0,1,0,1155.78,24.9Z" transform="translate(-1132 -8)"/>
</svg>
