<svg xmlns="http://www.w3.org/2000/svg" width="56.32" height="56.32" viewBox="0 0 56.32 56.32">
  <metadata><?xpacket begin="﻿" id="W5M0MpCehiHzreSzNTczkc9d"?>
<x:xmpmeta xmlns:x="adobe:ns:meta/" x:xmptk="Adobe XMP Core 5.6-c138 79.159824, 2016/09/14-01:09:01        ">
   <rdf:RDF xmlns:rdf="http://www.w3.org/1999/02/22-rdf-syntax-ns#">
      <rdf:Description rdf:about=""/>
   </rdf:RDF>
</x:xmpmeta>
                                                                                                    
                                                                                                    
                                                                                                    
                                                                                                    
                                                                                                    
                                                                                                    
                                                                                                    
                                                                                                    
                                                                                                    
                                                                                                    
                                                                                                    
                                                                                                    
                                                                                                    
                                                                                                    
                                                                                                    
                                                                                                    
                                                                                                    
                                                                                                    
                                                                                                    
                                                                                                    
                           
<?xpacket end="w"?></metadata>
<defs>
    <style>
      .cls-1 {
        fill: #00b9e1;
        fill-rule: evenodd;
      }
    </style>
  </defs>
  <path id="Фигура_27" data-name="Фигура 27" class="cls-1" d="M1298.66,4579.9a7.555,7.555,0,0,0,1.28-3.86,5.676,5.676,0,0,0-5.67-5.66,5.293,5.293,0,0,0-1.06.1A27.992,27.992,0,1,0,1298.66,4579.9Zm-4.39-7.28a3.425,3.425,0,0,1,3.42,3.42c0,1.96-2.07,4.34-3.42,5.63-1.36-1.29-3.42-3.67-3.42-5.63A3.418,3.418,0,0,1,1294.27,4572.62Zm-3.25-1.22a5.669,5.669,0,0,0-2.42,4.64c0,3.83,4.45,7.58,4.96,7.99a1.1,1.1,0,0,0,1.42,0,18.109,18.109,0,0,0,2.01-1.93,26.233,26.233,0,0,1,.9,5.72h-9.64a39.78,39.78,0,0,0-4.56-18.33,20.65,20.65,0,0,0-4.12-5.28A25.875,25.875,0,0,1,1291.02,4571.4Zm-20.14-8.01v24.43h-12.89a43.137,43.137,0,0,1,1.36-9.87,17.576,17.576,0,0,0,4.14,4.96,1.131,1.131,0,0,0,.71.26,1.111,1.111,0,0,0,.71-0.26c0.51-.41,4.96-4.16,4.96-7.99a5.678,5.678,0,0,0-5.67-5.67,5.96,5.96,0,0,0-1.2.13C1265.25,4565.9,1267.99,4563.82,1270.88,4563.39Zm-10.1,11.53a3.42,3.42,0,1,1,6.84,0c0,1.96-2.06,4.34-3.42,5.62C1262.85,4579.26,1260.78,4576.88,1260.78,4574.92Zm3.65-10.71a20.825,20.825,0,0,0-4.12,5.28,39.78,39.78,0,0,0-4.56,18.33h-9.64A25.974,25.974,0,0,1,1264.43,4564.21Zm-18.32,25.86h9.63a39.815,39.815,0,0,0,4.57,18.44,20.825,20.825,0,0,0,4.12,5.28A25.953,25.953,0,0,1,1246.11,4590.07Zm24.77,24.54c-3.21-.48-6.24-2.99-8.61-7.2a37.512,37.512,0,0,1-4.28-17.34h12.89v5.88a5.666,5.666,0,0,0-4.6,5.56c0,3.35,3.41,6.64,4.6,7.69v5.41h0Zm1.06-7.48c-1.35-1.28-3.42-3.66-3.42-5.62a3.425,3.425,0,0,1,6.85,0C1275.37,4603.46,1273.3,4605.85,1271.94,4607.13Zm1.18,7.48v-5.51c1.28-1.14,4.49-4.34,4.49-7.59a5.673,5.673,0,0,0-4.49-5.54v-32.58c3.21,0.48,6.24,2.99,8.61,7.2a37.448,37.448,0,0,1,4.28,17.23h-5.26a1.125,1.125,0,0,0,0,2.25h5.26a37.512,37.512,0,0,1-4.28,17.34C1279.36,4611.62,1276.33,4614.13,1273.12,4614.61Zm6.45-.82a20.825,20.825,0,0,0,4.12-5.28,39.815,39.815,0,0,0,4.57-18.44h9.63A25.953,25.953,0,0,1,1279.57,4613.79Zm-2.86-25.97h-0.67a1.125,1.125,0,0,0,0,2.25h0.67A1.125,1.125,0,0,0,1276.71,4587.82Zm17.56-13.18a1.118,1.118,0,0,0-1.12,1.12v0.45a1.12,1.12,0,0,0,2.24,0v-0.45A1.118,1.118,0,0,0,1294.27,4574.64Zm-30.07-1.12a1.118,1.118,0,0,0-1.12,1.12v0.45a1.12,1.12,0,1,0,2.24,0v-0.45A1.118,1.118,0,0,0,1264.2,4573.52Zm7.74,26.59a1.118,1.118,0,0,0-1.12,1.12v0.45a1.125,1.125,0,0,0,2.25,0v-0.45A1.127,1.127,0,0,0,1271.94,4600.11Z" transform="translate(-1243.84 -4560.84)"/>
</svg>
