<svg xmlns="http://www.w3.org/2000/svg" width="38.88" height="46" viewBox="0 0 38.88 46">
  <metadata><?xpacket begin="﻿" id="W5M0MpCehiHzreSzNTczkc9d"?>
<x:xmpmeta xmlns:x="adobe:ns:meta/" x:xmptk="Adobe XMP Core 5.6-c138 79.159824, 2016/09/14-01:09:01        ">
   <rdf:RDF xmlns:rdf="http://www.w3.org/1999/02/22-rdf-syntax-ns#">
      <rdf:Description rdf:about=""/>
   </rdf:RDF>
</x:xmpmeta>
                                                                                                    
                                                                                                    
                                                                                                    
                                                                                                    
                                                                                                    
                                                                                                    
                                                                                                    
                                                                                                    
                                                                                                    
                                                                                                    
                                                                                                    
                                                                                                    
                                                                                                    
                                                                                                    
                                                                                                    
                                                                                                    
                                                                                                    
                                                                                                    
                                                                                                    
                                                                                                    
                           
<?xpacket end="w"?></metadata>
<defs>
    <style>
      .cls-1 {
        fill: #232853;
        fill-rule: evenodd;
      }
    </style>
  </defs>
  <path id="Фигура_29" data-name="Фигура 29" class="cls-1" d="M1037.23,2547h-29.46a4.776,4.776,0,0,0-4.77,4.74v37.89a3.369,3.369,0,0,0,3.36,3.37h24.4a3.369,3.369,0,0,0,3.36-3.37v-28.07h5.52a2.228,2.228,0,0,0,2.22-2.22v-7.49A4.846,4.846,0,0,0,1037.23,2547Zm-4.9,4.74v37.89a1.566,1.566,0,0,1-1.57,1.57h-24.4a1.573,1.573,0,0,1-1.57-1.57v-37.86a2.979,2.979,0,0,1,2.98-2.97h25.6A4.706,4.706,0,0,0,1032.33,2551.74Zm7.74,7.6a0.425,0.425,0,0,1-.43.42h-5.52v-7.99a2.97,2.97,0,0,1,2.97-2.97h0.09a3.033,3.033,0,0,1,2.89,3.05v7.49h0Zm-25.18-7.08a7.105,7.105,0,1,0,7.09,7.11A7.108,7.108,0,0,0,1014.89,2552.26Zm0,12.41a5.305,5.305,0,1,1,5.3-5.3A5.309,5.309,0,0,1,1014.89,2564.67Zm0-4.05a1.25,1.25,0,1,1,0-2.5,0.9,0.9,0,1,0,0-1.8,3.045,3.045,0,0,0,0,6.09A0.9,0.9,0,1,0,1014.89,2560.62Zm12.81,9.35h-19.01a0.9,0.9,0,0,0,0,1.79h19.01A0.9,0.9,0,1,0,1027.7,2569.97Zm0,3.81h-19.01a0.9,0.9,0,0,0,0,1.79h19.01A0.9,0.9,0,1,0,1027.7,2573.78Zm-9.14,4.02h-9.87a0.9,0.9,0,0,0,0,1.79h9.87A0.9,0.9,0,1,0,1018.56,2577.8Zm0.16,8.94a0.882,0.882,0,0,0-1.21-.36,0.545,0.545,0,0,1-.61-0.06,2.329,2.329,0,0,0-2.33-.44l-1.52.55a0.3,0.3,0,0,1-.29-0.1l-0.2-.22a2.093,2.093,0,0,0-2.16-.59l-1.77.55a0.9,0.9,0,0,0,.53,1.72l1.77-.55a0.286,0.286,0,0,1,.31.09l0.2,0.22a2.09,2.09,0,0,0,2.14.6,0.257,0.257,0,0,0,.05-0.02l1.55-.56a0.514,0.514,0,0,1,.53.1,2.352,2.352,0,0,0,1.54.57,2.326,2.326,0,0,0,1.12-.28A0.9,0.9,0,0,0,1018.72,2586.74Zm1.78-.61a0.9,0.9,0,1,1-.9.9A0.9,0.9,0,0,1,1020.5,2586.13Z" transform="translate(-1003 -2547)"/>
</svg>
