<svg xmlns="http://www.w3.org/2000/svg" width="20" height="18" viewBox="0 0 20 18">
  <metadata><?xpacket begin="﻿" id="W5M0MpCehiHzreSzNTczkc9d"?>
<x:xmpmeta xmlns:x="adobe:ns:meta/" x:xmptk="Adobe XMP Core 5.6-c138 79.159824, 2016/09/14-01:09:01        ">
   <rdf:RDF xmlns:rdf="http://www.w3.org/1999/02/22-rdf-syntax-ns#">
      <rdf:Description rdf:about=""/>
   </rdf:RDF>
</x:xmpmeta>
                                                                                                    
                                                                                                    
                                                                                                    
                                                                                                    
                                                                                                    
                                                                                                    
                                                                                                    
                                                                                                    
                                                                                                    
                                                                                                    
                                                                                                    
                                                                                                    
                                                                                                    
                                                                                                    
                                                                                                    
                                                                                                    
                                                                                                    
                                                                                                    
                                                                                                    
                                                                                                    
                           
<?xpacket end="w"?></metadata>
<defs>
    <style>
      .cls-1 {
        fill: #0387fd;
        fill-rule: evenodd;
      }
    </style>
  </defs>
  <path id="Фигура_32" data-name="Фигура 32" class="cls-1" d="M1075,6425.68l-8.15,5.15a1.272,1.272,0,0,0-.53,1.4l0.88,3.17a0.606,0.606,0,0,0,.58.45h0.05a0.608,0.608,0,0,0,.56-0.53l0.23-1.74a1.069,1.069,0,0,1,.3-0.62l6.73-6.41a0.564,0.564,0,0,0,.06-0.74A0.532,0.532,0,0,0,1075,6425.68Zm-6.61,6.69a1.855,1.855,0,0,0-.56,1.1l-0.11.84-0.64-2.3a0.446,0.446,0,0,1,.19-0.49l5.97-3.78Zm-0.61,3.58a0.7,0.7,0,0,1-.67-0.52l-0.88-3.17a1.386,1.386,0,0,1,.57-1.52l8.15-5.15a0.639,0.639,0,0,1,.84.16,0.67,0.67,0,0,1-.08.87l-6.72,6.41a1,1,0,0,0-.28.56l-0.23,1.74a0.694,0.694,0,0,1-.64.62h-0.06Zm7.27-10.19-8.14,5.15a1.153,1.153,0,0,0-.49,1.29l0.88,3.18a0.489,0.489,0,0,0,.52.37,0.5,0.5,0,0,0,.47-0.45l0.23-1.74a1.085,1.085,0,0,1,.34-0.67l6.72-6.41a0.459,0.459,0,0,0,.05-0.61,0.439,0.439,0,0,0-.58-0.11h0Zm-7.29,9.04-0.77-2.77a0.546,0.546,0,0,1,.23-0.6l5.97-3.77,0.11,0.16-4.85,4.62h0a1.757,1.757,0,0,0-.52,1.04Zm4.69-6.45-5.13,3.25a0.332,0.332,0,0,0-.14.38l0.51,1.85,0.05-.38a1.929,1.929,0,0,1,.58-1.15h0Zm7.13-6.03a0.907,0.907,0,0,0-.92-0.16l-17.98,7.12a0.913,0.913,0,0,0-.58.88,0.923,0.923,0,0,0,.59.87l4.2,1.61,1.64,5.41a0.945,0.945,0,0,0,.61.62,0.893,0.893,0,0,0,.83-0.18l2.45-2.04a0.316,0.316,0,0,1,.4-0.01l4.41,3.28a0.87,0.87,0,0,0,.53.18,0.919,0.919,0,0,0,.33-0.06,0.957,0.957,0,0,0,.57-0.68l3.22-15.94A0.928,0.928,0,0,0,1079.58,6422.32Zm-0.47.74-3.23,15.93a0.115,0.115,0,0,1-.07.09,0.131,0.131,0,0,1-.12-0.01l-4.4-3.29a1.16,1.16,0,0,0-.66-0.22,1.111,1.111,0,0,0-.71.26l-2.45,2.05a0.117,0.117,0,0,1-.11.02,0.151,0.151,0,0,1-.08-0.08l-1.69-5.6a0.414,0.414,0,0,0-.24-0.26l-4.38-1.68a0.112,0.112,0,0,1-.08-0.12,0.11,0.11,0,0,1,.07-0.11l17.99-7.12h0a0.1,0.1,0,0,1,.12.02A0.134,0.134,0,0,1,1079.11,6423.06Zm-3.35,16.94a1,1,0,0,1-.59-0.2l-4.4-3.28a0.226,0.226,0,0,0-.29.01l-2.45,2.04a0.96,0.96,0,0,1-.92.19,1.014,1.014,0,0,1-.67-0.68l-1.63-5.36-4.16-1.6a1.023,1.023,0,0,1-.65-0.96,1.038,1.038,0,0,1,.64-0.97l17.99-7.12a0.963,0.963,0,0,1,1.01.18h0a1.048,1.048,0,0,1,.34.99l-3.23,15.94a1.028,1.028,0,0,1-.62.75A0.937,0.937,0,0,1,1075.76,6440Zm-5.13-3.73a0.4,0.4,0,0,1,.25.09l4.41,3.28a0.743,0.743,0,0,0,.47.16,0.826,0.826,0,0,0,.8-0.66l3.23-15.94a0.825,0.825,0,0,0-.27-0.8,0.8,0.8,0,0,0-.82-0.15l-17.99,7.12a0.856,0.856,0,0,0-.52.79,0.836,0.836,0,0,0,.53.78l4.25,1.62,1.65,5.46a0.826,0.826,0,0,0,.54.55,0.813,0.813,0,0,0,.75-0.15l2.44-2.05A0.478,0.478,0,0,1,1070.63,6436.27Zm5.13,2.92a0.175,0.175,0,0,1-.12-0.04l-4.41-3.29a1.006,1.006,0,0,0-.6-0.2,1.021,1.021,0,0,0-.65.24l-2.44,2.04a0.2,0.2,0,0,1-.21.04,0.2,0.2,0,0,1-.14-0.14l-1.7-5.6a0.3,0.3,0,0,0-.18-0.2l-4.38-1.67a0.226,0.226,0,0,1-.14-0.21,0.23,0.23,0,0,1,.14-0.22l17.98-7.12a0.218,0.218,0,0,1,.22.04,0.238,0.238,0,0,1,.08.22l-3.23,15.93a0.209,0.209,0,0,1-.14.16A0.188,0.188,0,0,1,1075.76,6439.19Zm-5.13-3.73a1.214,1.214,0,0,1,.71.24l4.41,3.29h0.02c0.02-.01.02-0.01,0.02-0.02l3.23-15.93a0.037,0.037,0,0,0-.01-0.03h-0.03l-17.98,7.12a0.038,0.038,0,0,0-.02.02,0.034,0.034,0,0,0,.02.03l4.38,1.68a0.5,0.5,0,0,1,.3.32l1.69,5.6c0.01,0,.01.01,0.02,0.01a0.014,0.014,0,0,0,.02,0l2.45-2.04A1.152,1.152,0,0,1,1070.63,6435.46Zm6-4.61a0.4,0.4,0,0,0-.47.31l-0.06.28a0.409,0.409,0,0,0,.31.48,0.2,0.2,0,0,0,.08.01,0.413,0.413,0,0,0,.39-0.32l0.06-.28A0.4,0.4,0,0,0,1076.63,6430.85Zm-0.14,1.18a0.308,0.308,0,0,1-.1-0.01,0.5,0.5,0,0,1-.31-0.22,0.507,0.507,0,0,1-.07-0.38l0.06-.28a0.483,0.483,0,0,1,.21-0.32,0.491,0.491,0,0,1,.37-0.07h0a0.5,0.5,0,0,1,.38.6l-0.06.28A0.5,0.5,0,0,1,1076.49,6432.03Zm0.06-1.09a0.235,0.235,0,0,0-.16.05,0.289,0.289,0,0,0-.13.19l-0.06.28a0.31,0.31,0,0,0,.04.23,0.259,0.259,0,0,0,.19.13,0.127,0.127,0,0,0,.06.01,0.3,0.3,0,0,0,.29-0.24l0.06-.28a0.31,0.31,0,0,0-.23-0.37h-0.06Zm-0.31,1.77a0.4,0.4,0,0,0-.47.31l-0.91,4.29a0.4,0.4,0,0,0,.3.48,0.277,0.277,0,0,0,.09.01,0.393,0.393,0,0,0,.38-0.32l0.91-4.29A0.4,0.4,0,0,0,1076.24,6432.71Zm-0.99,5.19a0.41,0.41,0,0,1-.11-0.01,0.5,0.5,0,0,1-.37-0.6l0.9-4.29a0.551,0.551,0,0,1,.22-0.32,0.53,0.53,0,0,1,.37-0.07h0a0.5,0.5,0,0,1,.37.6l-0.9,4.29A0.5,0.5,0,0,1,1075.25,6437.9Zm0.9-5.1a0.332,0.332,0,0,0-.16.05,0.328,0.328,0,0,0-.13.19l-0.9,4.29a0.3,0.3,0,0,0,.22.37h0.07a0.3,0.3,0,0,0,.29-0.24l0.91-4.29a0.307,0.307,0,0,0-.23-0.36A0.148,0.148,0,0,0,1076.15,6432.8Z" transform="translate(-1060 -6422)"/>
</svg>
