<svg xmlns="http://www.w3.org/2000/svg" width="41" height="41" viewBox="0 0 41 41">
  <metadata><?xpacket begin="﻿" id="W5M0MpCehiHzreSzNTczkc9d"?>
<x:xmpmeta xmlns:x="adobe:ns:meta/" x:xmptk="Adobe XMP Core 5.6-c138 79.159824, 2016/09/14-01:09:01        ">
   <rdf:RDF xmlns:rdf="http://www.w3.org/1999/02/22-rdf-syntax-ns#">
      <rdf:Description rdf:about=""/>
   </rdf:RDF>
</x:xmpmeta>
                                                                                                    
                                                                                                    
                                                                                                    
                                                                                                    
                                                                                                    
                                                                                                    
                                                                                                    
                                                                                                    
                                                                                                    
                                                                                                    
                                                                                                    
                                                                                                    
                                                                                                    
                                                                                                    
                                                                                                    
                                                                                                    
                                                                                                    
                                                                                                    
                                                                                                    
                                                                                                    
                           
<?xpacket end="w"?></metadata>
<defs>
    <style>
      .cls-1 {
        fill: #12173f;
        fill-rule: evenodd;
      }
    </style>
  </defs>
  <path id="Фигура_13" data-name="Фигура 13" class="cls-1" d="M1435.5,8A20.5,20.5,0,1,0,1456,28.5,20.5,20.5,0,0,0,1435.5,8Zm0,39.292A18.792,18.792,0,1,1,1454.29,28.5,18.789,18.789,0,0,1,1435.5,47.292Zm0-35.021A16.229,16.229,0,1,0,1451.73,28.5,16.232,16.232,0,0,0,1435.5,12.271Zm0,30.75A14.521,14.521,0,1,1,1450.02,28.5,14.52,14.52,0,0,1,1435.5,43.021Zm-11.96-15.375h1.71v1.708h-1.71V27.646Zm22.21,0h1.71v1.708h-1.71V27.646ZM1442,26.258a1.646,1.646,0,0,1-.05.221l-0.03.079a0.645,0.645,0,0,1-.08.123,0.112,0.112,0,0,1-.03.044,0.034,0.034,0,0,1-.02.015,0.65,0.65,0,0,1-.19.156l-5.78,2.961a0.7,0.7,0,0,1-.64,0L1429.4,26.9s-0.01-.008-0.01-0.011c-0.02-.014-0.05-0.028-0.07-0.044a0.556,0.556,0,0,1-.11-0.1,0.036,0.036,0,0,1-.02-0.02,0.11,0.11,0,0,1-.03-0.044,0.63,0.63,0,0,1-.08-0.123l-0.03-.08a1.632,1.632,0,0,1-.05-0.221V26.224l0.03-.19a0.543,0.543,0,0,1,.08-0.209v0l5.78-9.473c0.01-.016.03-0.021,0.04-0.036a0.676,0.676,0,0,1,1.14,0c0.01,0.015.03,0.02,0.04,0.036l5.78,9.473v0a0.543,0.543,0,0,1,.08.209,0.2,0.2,0,0,1,.01.076,0.452,0.452,0,0,1,.02.114v0.034Zm-7.22-6.922-3.07,5.034,3.07-1.573V19.336Zm1.44,0V22.8l3.07,1.573ZM1435.5,24.1l-4.15,2.124,4.15,2.124,4.15-2.124Zm-6.31,5.176a0.693,0.693,0,0,1,.85-0.172l5.46,2.8,5.46-2.8a0.693,0.693,0,0,1,.85.171,0.773,0.773,0,0,1,.08.9l-5.78,9.473a0.708,0.708,0,0,1-1.22,0l-5.78-9.473A0.773,0.773,0,0,1,1429.19,29.275Zm7.03,7.389,3.07-5.034-3.07,1.573v3.461Zm-1.44,0V33.2l-3.07-1.573Z" transform="translate(-1415 -8)"/>
</svg>
