<svg xmlns="http://www.w3.org/2000/svg" width="53.375" height="56.31" viewBox="0 0 53.375 56.31">
  <metadata><?xpacket begin="﻿" id="W5M0MpCehiHzreSzNTczkc9d"?>
<x:xmpmeta xmlns:x="adobe:ns:meta/" x:xmptk="Adobe XMP Core 5.6-c138 79.159824, 2016/09/14-01:09:01        ">
   <rdf:RDF xmlns:rdf="http://www.w3.org/1999/02/22-rdf-syntax-ns#">
      <rdf:Description rdf:about=""/>
   </rdf:RDF>
</x:xmpmeta>
                                                                                                    
                                                                                                    
                                                                                                    
                                                                                                    
                                                                                                    
                                                                                                    
                                                                                                    
                                                                                                    
                                                                                                    
                                                                                                    
                                                                                                    
                                                                                                    
                                                                                                    
                                                                                                    
                                                                                                    
                                                                                                    
                                                                                                    
                                                                                                    
                                                                                                    
                                                                                                    
                           
<?xpacket end="w"?></metadata>
<defs>
    <style>
      .cls-1 {
        fill: #329cfe;
        fill-rule: evenodd;
      }
    </style>
  </defs>
  <path id="Фигура_24" data-name="Фигура 24" class="cls-1" d="M863.074,4778.02h-2.413v-35.03a2.955,2.955,0,0,0-2.958-2.95h-5.395a2.956,2.956,0,0,0-2.959,2.95v35.03h-6.128v-19.16a2.964,2.964,0,0,0-2.958-2.96h-5.395a2.965,2.965,0,0,0-2.959,2.96v19.16h-6.128v-9.92a2.964,2.964,0,0,0-2.958-2.96h-5.395a2.964,2.964,0,0,0-2.959,2.96v9.92h-2.544a1.1,1.1,0,1,0,0,2.2h51.149A1.1,1.1,0,1,0,863.074,4778.02Zm-39.494,0h-6.91v-9.92a0.759,0.759,0,0,1,.757-0.76h5.395a0.759,0.759,0,0,1,.758.76v9.92h0Zm17.44,0h-6.91v-19.16a0.759,0.759,0,0,1,.758-0.76h5.395a0.759,0.759,0,0,1,.757.76v19.16Zm17.44,0h-6.91v-35.03a0.757,0.757,0,0,1,.758-0.75H857.7a0.757,0.757,0,0,1,.757.75v35.03h0Zm2.2-52.95a1.094,1.094,0,0,0-.319-0.84,1.116,1.116,0,0,0-.835-0.32h-6.711a1.1,1.1,0,1,0,0,2.2H856.9l-10.879,10.87-4.1-4.1a1.106,1.106,0,0,0-1.556,0l-19.783,19.77a1.1,1.1,0,0,0,1.557,1.56l19-19,4.1,4.1a1.1,1.1,0,0,0,1.556,0l11.657-11.65v3.72a1.1,1.1,0,0,0,2.2,0v-6.26C860.661,4725.1,860.659,4725.08,860.658,4725.07Zm-43.006,31.1a1.1,1.1,0,1,1-1.1,1.09A1.1,1.1,0,0,1,817.652,4756.17Z" transform="translate(-810.813 -4723.91)"/>
</svg>
