<svg xmlns="http://www.w3.org/2000/svg" width="72.844" height="89.81" viewBox="0 0 72.844 89.81">
  <metadata><?xpacket begin="﻿" id="W5M0MpCehiHzreSzNTczkc9d"?>
<x:xmpmeta xmlns:x="adobe:ns:meta/" x:xmptk="Adobe XMP Core 5.6-c138 79.159824, 2016/09/14-01:09:01        ">
   <rdf:RDF xmlns:rdf="http://www.w3.org/1999/02/22-rdf-syntax-ns#">
      <rdf:Description rdf:about=""/>
   </rdf:RDF>
</x:xmpmeta>
                                                                                                    
                                                                                                    
                                                                                                    
                                                                                                    
                                                                                                    
                                                                                                    
                                                                                                    
                                                                                                    
                                                                                                    
                                                                                                    
                                                                                                    
                                                                                                    
                                                                                                    
                                                                                                    
                                                                                                    
                                                                                                    
                                                                                                    
                                                                                                    
                                                                                                    
                                                                                                    
                           
<?xpacket end="w"?></metadata>
<defs>
    <style>
      .cls-1 {
        fill: #9846db;
        fill-rule: evenodd;
      }
    </style>
  </defs>
  <path id="Фигура_16" data-name="Фигура 16" class="cls-1" d="M506.138,5418.17H483.009a8.766,8.766,0,0,0-17.169,0H442.711a4.706,4.706,0,0,0-4.712,4.7v49.92a4.712,4.712,0,0,0,4.712,4.7h21.973l-7.136,21.21a1.756,1.756,0,0,0,1.108,2.22,1.821,1.821,0,0,0,.56.09,1.755,1.755,0,0,0,1.668-1.2l7.511-22.32h12.059l7.512,22.32a1.754,1.754,0,0,0,1.667,1.2,1.816,1.816,0,0,0,.56-0.09,1.756,1.756,0,0,0,1.108-2.22l-7.136-21.21h21.973a4.712,4.712,0,0,0,4.712-4.7v-49.92A4.706,4.706,0,0,0,506.138,5418.17Zm-31.713-3.48a5.248,5.248,0,0,1,4.94,3.48h-9.88A5.246,5.246,0,0,1,474.425,5414.69Zm32.907,58.1a1.191,1.191,0,0,1-1.194,1.19h-4.6v-25.01a1.759,1.759,0,0,0-3.518,0v25.01h-5.412v-19.64a1.759,1.759,0,1,0-3.518,0v19.64h-4.94v-13.9a1.76,1.76,0,1,0-3.519,0v13.9h-4.452v-18.36a1.759,1.759,0,1,0-3.518,0v18.36h-5.108v-9.65a1.759,1.759,0,1,0-3.518,0v9.65h-4.085v-8.94a1.76,1.76,0,1,0-3.519,0v8.94h-4.71v-6.9a1.759,1.759,0,0,0-3.518,0v6.9h-5.5a1.191,1.191,0,0,1-1.194-1.19v-49.92a1.2,1.2,0,0,1,1.194-1.2h63.426a1.2,1.2,0,0,1,1.195,1.2v49.92h0Zm-5.8-42.86c0-.02-0.007-0.04-0.01-0.07s-0.009-.06-0.015-0.1c-0.006-.02-0.014-0.05-0.02-0.08s-0.014-.05-0.022-0.08a0.459,0.459,0,0,0-.028-0.08,0.545,0.545,0,0,0-.03-0.08c-0.011-.03-0.022-0.05-0.034-0.08a0.741,0.741,0,0,1-.04-0.08,0.533,0.533,0,0,1-.039-0.07,0.819,0.819,0,0,1-.05-0.08,0.586,0.586,0,0,1-.05-0.07,0.489,0.489,0,0,1-.052-0.07c-0.032-.03-0.065-0.07-0.1-0.11-0.006,0-.01-0.01-0.016-0.01s-0.012-.01-0.018-0.02c-0.036-.03-0.072-0.07-0.111-0.1-0.021-.02-0.044-0.03-0.066-0.05s-0.047-.03-0.072-0.05-0.052-.03-0.078-0.05-0.046-.03-0.07-0.04-0.052-.03-0.078-0.04l-0.078-.03-0.076-.03-0.087-.03c-0.025-.01-0.05-0.01-0.074-0.02a0.31,0.31,0,0,0-.093-0.02c-0.028-.01-0.056-0.01-0.083-0.02s-0.058-.01-0.088-0.01a0.67,0.67,0,0,1-.141-0.01h-7.63a1.755,1.755,0,1,0,0,3.51h3.351l-14.605,14.57-3.835-3.83a1.772,1.772,0,0,0-2.488,0l-12.694,12.66-3.789-3.78a1.772,1.772,0,0,0-2.488,0l-6.42,6.41a1.756,1.756,0,0,0,2.488,2.48l5.175-5.16,3.79,3.78a1.772,1.772,0,0,0,2.488,0l12.694-12.66,3.835,3.82a1.771,1.771,0,0,0,2.487,0l15.85-15.81v3.35a1.759,1.759,0,0,0,3.518,0v-7.58A1.549,1.549,0,0,0,501.534,5429.93Zm-51.073-1.58a1.755,1.755,0,1,1-1.759,1.76A1.76,1.76,0,0,1,450.461,5428.35Zm0,7.15a1.755,1.755,0,1,1-1.759,1.76A1.76,1.76,0,0,1,450.461,5435.5Zm0,7.16a1.755,1.755,0,1,1-1.759,1.75A1.752,1.752,0,0,1,450.461,5442.66Z" transform="translate(-438 -5411.19)"/>
</svg>
