<svg xmlns="http://www.w3.org/2000/svg" width="64.062" height="76.82" viewBox="0 0 64.062 76.82">
  <metadata><?xpacket begin="﻿" id="W5M0MpCehiHzreSzNTczkc9d"?>
<x:xmpmeta xmlns:x="adobe:ns:meta/" x:xmptk="Adobe XMP Core 5.6-c138 79.159824, 2016/09/14-01:09:01        ">
   <rdf:RDF xmlns:rdf="http://www.w3.org/1999/02/22-rdf-syntax-ns#">
      <rdf:Description rdf:about=""/>
   </rdf:RDF>
</x:xmpmeta>
                                                                                                    
                                                                                                    
                                                                                                    
                                                                                                    
                                                                                                    
                                                                                                    
                                                                                                    
                                                                                                    
                                                                                                    
                                                                                                    
                                                                                                    
                                                                                                    
                                                                                                    
                                                                                                    
                                                                                                    
                                                                                                    
                                                                                                    
                                                                                                    
                                                                                                    
                                                                                                    
                           
<?xpacket end="w"?></metadata>
<defs>
    <style>
      .cls-1 {
        fill: #151846;
        fill-rule: evenodd;
      }
    </style>
  </defs>
  <path id="Фигура_4" data-name="Фигура 4" class="cls-1" d="M744.531,1429.15a15.368,15.368,0,0,0-4.594-1.81c-0.349-.09-0.7-0.19-1.038-0.29-1.956-.57-3.211-1.71-3.356-3.03a2.892,2.892,0,0,1,1.727-2.77,3.678,3.678,0,0,1,.838-0.32v2.38a1.6,1.6,0,0,0,3.2,0v-2.26a9.511,9.511,0,0,1,2.591,1.05,1.6,1.6,0,0,0,1.659-2.74,12.9,12.9,0,0,0-4.249-1.58v-1.16a1.6,1.6,0,0,0-3.2,0v1.06a6.84,6.84,0,0,0-2.383.77,6.046,6.046,0,0,0-3.365,5.91c0.29,2.66,2.4,4.81,5.637,5.76l0.111,0.03v7.54a3.916,3.916,0,0,1-2.773-1.46,1.6,1.6,0,0,0-2.843,1.47c0.974,1.88,3.233,2.94,5.616,3.2v1.68a1.6,1.6,0,0,0,3.2,0v-1.79c0.332-.07.656-0.15,0.967-0.24a6.934,6.934,0,0,0,4.759-5.57A5.857,5.857,0,0,0,744.531,1429.15Zm-0.664,5.37a3.726,3.726,0,0,1-2.552,2.98H741.31v-6.39a6.225,6.225,0,0,1,1.424.69A2.719,2.719,0,0,1,743.867,1434.52Zm-4.158-25.72q-0.808,0-1.6.06V1381.2c0-1.67-1.171-4.03-6.751-5.77a54.961,54.961,0,0,0-28.129,0c-5.581,1.74-6.752,4.1-6.752,5.77v48.4c0,1.67,1.171,4.03,6.752,5.77a49.126,49.126,0,0,0,14.064,1.83c1.009,0,2.017-.03,3.012-0.07A20.813,20.813,0,1,0,739.709,1408.8Zm-35.527-30.32a51.989,51.989,0,0,1,26.219,0c3.676,1.15,4.5,2.38,4.5,2.72s-0.828,1.57-4.5,2.72a51.989,51.989,0,0,1-26.219,0c-3.677-1.15-4.5-2.38-4.5-2.72S700.505,1379.63,704.182,1378.48Zm-4.5,7.01a18.272,18.272,0,0,0,3.55,1.48,54.961,54.961,0,0,0,28.129,0,18.287,18.287,0,0,0,3.549-1.48v3.78c0,0.34-.828,1.56-4.5,2.71a45.752,45.752,0,0,1-13.11,1.69,55.733,55.733,0,0,1-6.7-.39,1.6,1.6,0,0,0-.381,3.18,60.024,60.024,0,0,0,7.081.41,49.138,49.138,0,0,0,14.065-1.83,18.287,18.287,0,0,0,3.549-1.48v11.84c0,0.34-.828,1.57-4.5,2.72a51.989,51.989,0,0,1-26.219,0c-3.677-1.15-4.5-2.38-4.5-2.72v-3.78a17.67,17.67,0,0,0,3.55,1.48,49.126,49.126,0,0,0,14.064,1.83,56.832,56.832,0,0,0,8.97-.67,1.6,1.6,0,1,0-.5-3.16,54.126,54.126,0,0,1-8.467.63,45.766,45.766,0,0,1-13.109-1.68c-3.677-1.15-4.5-2.38-4.5-2.72v-11.84h0ZM717.291,1434a46.132,46.132,0,0,1-13.109-1.68c-3.677-1.15-4.5-2.38-4.5-2.72v-3.78a18.272,18.272,0,0,0,3.55,1.48,49.126,49.126,0,0,0,14.064,1.83c0.536,0,1.072,0,1.607-.02,0,0.16-.006.33-0.006,0.49,0,0.18,0,.36.008,0.54,0,0.06,0,.12.006,0.17,0,0.13.008,0.25,0.015,0.38,0,0.07.009,0.13,0.013,0.2,0.007,0.11.013,0.22,0.021,0.34,0.006,0.07.014,0.15,0.021,0.22,0.009,0.1.017,0.21,0.028,0.31,0.009,0.08.019,0.16,0.028,0.24,0.012,0.1.022,0.2,0.035,0.29s0.024,0.18.037,0.27,0.024,0.17.037,0.26,0.032,0.19.049,0.29c0.012,0.07.025,0.15,0.039,0.23,0.019,0.1.04,0.21,0.061,0.31,0.013,0.07.025,0.13,0.039,0.2,0.008,0.04.015,0.08,0.023,0.11C718.669,1433.99,717.98,1434,717.291,1434Zm3.444-12.96c0,0.01,0,.01,0,0.01-0.056.12-.111,0.25-0.165,0.38-0.015.03-.031,0.07-0.046,0.1-0.025.06-.049,0.12-0.073,0.18a20.863,20.863,0,0,0-1.227,4.19c-0.641.02-1.287,0.03-1.931,0.03a45.766,45.766,0,0,1-13.109-1.68c-3.677-1.15-4.5-2.38-4.5-2.72v-11.84h0a18.272,18.272,0,0,0,3.55,1.48,49.126,49.126,0,0,0,14.064,1.83,53.421,53.421,0,0,0,11.616-1.18,20.784,20.784,0,0,0-5.033,4.28c-0.419.49-.812,1-1.182,1.52-1.741.16-3.558,0.25-5.4,0.25a55.733,55.733,0,0,1-6.7-.39,1.6,1.6,0,0,0-.381,3.18,60.024,60.024,0,0,0,7.081.41c1.174,0,2.336-.04,3.48-0.1C720.759,1420.99,720.747,1421.02,720.735,1421.04Zm18.974,26.16a17.642,17.642,0,0,1-16.818-12.37c-0.028-.08-0.053-0.17-0.079-0.26-0.043-.14-0.084-0.29-0.124-0.44-0.026-.1-0.052-0.2-0.077-0.3-0.02-.08-0.041-0.16-0.06-0.24-0.039-.17-0.075-0.34-0.11-0.51-0.014-.07-0.027-0.14-0.04-0.21-0.027-.14-0.053-0.29-0.077-0.44-0.008-.05-0.016-0.09-0.023-0.14q-0.043-.285-0.078-0.57c-0.006-.05-0.012-0.11-0.018-0.16-0.021-.18-0.039-0.37-0.054-0.55,0-.02,0-0.03,0-0.05-0.015-.2-0.026-0.4-0.035-0.6,0-.05,0-0.1,0-0.15-0.007-.2-0.012-0.41-0.012-0.61,0-.24.006-0.49,0.016-0.73,0-.04,0-0.08,0-0.12,0.01-.21.025-0.43,0.043-0.65,0.006-.07.012-0.13,0.018-0.2,0.019-.19.04-0.38,0.065-0.57,0.013-.11.028-0.21,0.043-0.31s0.029-.19.044-0.28c0.037-.23.077-0.45,0.124-0.68a0.016,0.016,0,0,0,0-.01,17.664,17.664,0,0,1,12.4-13.37c0.026-.01.051-0.01,0.076-0.02l0.436-.12,0.5-.12c0.064-.01.129-0.03,0.194-0.04,0.221-.05.443-0.09,0.667-0.13a18.286,18.286,0,0,1,2.98-.25A17.6,17.6,0,1,1,739.709,1447.2Zm-35.175-51.79c0.248,0.07.5,0.13,0.76,0.19a1.6,1.6,0,1,0,.742-3.11c-0.233-.06-0.462-0.11-0.686-0.17A1.6,1.6,0,1,0,704.534,1395.41Zm26.015,7.87a1.465,1.465,0,0,0,.458-0.07c0.315-.09.632-0.19,0.943-0.3a1.6,1.6,0,1,0-1.028-3.03c-0.274.09-.553,0.18-0.83,0.26A1.6,1.6,0,0,0,730.549,1403.28Zm-24.514,13.41c-0.234-.06-0.463-0.12-0.687-0.17a1.6,1.6,0,1,0-.813,3.09c0.248,0.07.5,0.13,0.76,0.19a1.578,1.578,0,0,0,.371.04A1.6,1.6,0,0,0,706.035,1416.69Z" transform="translate(-696.469 -1373.59)"/>
</svg>
