<svg xmlns="http://www.w3.org/2000/svg" width="22" height="22" viewBox="0 0 22 22">
  <metadata><?xpacket begin="﻿" id="W5M0MpCehiHzreSzNTczkc9d"?>
<x:xmpmeta xmlns:x="adobe:ns:meta/" x:xmptk="Adobe XMP Core 5.6-c138 79.159824, 2016/09/14-01:09:01        ">
   <rdf:RDF xmlns:rdf="http://www.w3.org/1999/02/22-rdf-syntax-ns#">
      <rdf:Description rdf:about=""/>
   </rdf:RDF>
</x:xmpmeta>
                                                                                                    
                                                                                                    
                                                                                                    
                                                                                                    
                                                                                                    
                                                                                                    
                                                                                                    
                                                                                                    
                                                                                                    
                                                                                                    
                                                                                                    
                                                                                                    
                                                                                                    
                                                                                                    
                                                                                                    
                                                                                                    
                                                                                                    
                                                                                                    
                                                                                                    
                                                                                                    
                           
<?xpacket end="w"?></metadata>
<defs>
    <style>
      .cls-1 {
        fill: #fff;
        fill-rule: evenodd;
      }
    </style>
  </defs>
  <path id="Фигура_15" data-name="Фигура 15" class="cls-1" d="M1529.63,124.106a7.253,7.253,0,0,0-7.11,8.721l-0.81.405a0.463,0.463,0,0,0-.12.727l0.59,0.587-0.45.454h-0.72a0.459,0.459,0,0,0-.46.454v0.72l-0.64.642h-0.72a0.451,0.451,0,0,0-.45.453v0.72l-0.64.642h-0.72a0.453,0.453,0,0,0-.46.454v0.72l-1.68,1.683a0.43,0.43,0,0,0-.13.32v3.632a0.452,0.452,0,0,0,.45.454h3.63a0.444,0.444,0,0,0,.32-0.133l6.94-6.942,0.59,0.587a0.443,0.443,0,0,0,.39.127,0.463,0.463,0,0,0,.34-0.245l0.4-.811A7.26,7.26,0,1,0,1529.63,124.106Zm-1.59,13.408a0.458,0.458,0,0,0-.52.237l-0.28.568-0.47-.463a0.452,0.452,0,0,0-.64,0l-7.13,7.13h-2.99V142l1.69-1.682a0.472,0.472,0,0,0,.13-0.321v-0.454h0.45a0.444,0.444,0,0,0,.32-0.133l0.91-.908a0.44,0.44,0,0,0,.14-0.321v-0.454h0.45a0.443,0.443,0,0,0,.32-0.132l0.91-.908a0.474,0.474,0,0,0,.13-0.321v-0.454h0.45a0.467,0.467,0,0,0,.33-0.133l0.9-.908a0.449,0.449,0,0,0,0-.642l-0.46-.462,0.57-.284a0.462,0.462,0,0,0,.24-0.52A6.351,6.351,0,1,1,1528.04,137.514ZM1519.19,146h-3.63a0.56,0.56,0,0,1-.56-0.56v-3.632a0.579,0.579,0,0,1,.16-0.4l1.66-1.651v-0.676a0.56,0.56,0,0,1,.56-0.56h0.67l0.58-.58v-0.676a0.56,0.56,0,0,1,.56-0.56h0.68l0.58-.579v-0.676a0.56,0.56,0,0,1,.56-0.56h0.67l0.35-.348-0.51-.512a0.55,0.55,0,0,1-.16-0.485,0.562,0.562,0,0,1,.3-0.412l0.74-.369a7.5,7.5,0,0,1-.14-1.4,7.37,7.37,0,1,1,12,5.737,7.285,7.285,0,0,1-6.03,1.491l-0.37.739a0.553,0.553,0,0,1-.41.3,0.541,0.541,0,0,1-.48-0.157l-0.52-.511-6.86,6.866A0.571,0.571,0,0,1,1519.19,146Zm-1.81-7.262a0.345,0.345,0,0,0-.35.347v0.764l-1.72,1.714a0.369,0.369,0,0,0-.1.245v3.632a0.351,0.351,0,0,0,.35.347h3.63a0.367,0.367,0,0,0,.25-0.1l7.01-7.016,0.67,0.662a0.34,0.34,0,0,0,.55-0.09l0.44-.885,0.09,0.017a7.082,7.082,0,0,0,5.93-1.432,7.169,7.169,0,1,0-11.5-4.136l0.01,0.08-0.88.442a0.358,0.358,0,0,0-.19.256,0.341,0.341,0,0,0,.1.3l0.66,0.662-0.56.56h-0.76a0.351,0.351,0,0,0-.35.348v0.764l-0.7.7h-0.77a0.351,0.351,0,0,0-.35.347v0.764l-0.7.705h-0.76Zm1.67,6.354h-3.14v-3.14l1.71-1.713a0.327,0.327,0,0,0,.1-0.246v-0.561h0.56a0.352,0.352,0,0,0,.25-0.1l0.91-.908a0.37,0.37,0,0,0,.1-0.246v-0.56h0.56a0.367,0.367,0,0,0,.25-0.1l0.9-.908a0.324,0.324,0,0,0,.1-0.245V135.8h0.56a0.352,0.352,0,0,0,.25-0.1l0.91-.908a0.37,0.37,0,0,0,.1-0.246,0.365,0.365,0,0,0-.1-0.245l-0.57-.567,0.7-.35a0.345,0.345,0,0,0,.18-0.4,6.546,6.546,0,0,1-.21-1.617,6.46,6.46,0,1,1,12.24,2.9,6.671,6.671,0,0,1-1.83,2.229,6.414,6.414,0,0,1-5.57,1.12h0a0.344,0.344,0,0,0-.39.181l-0.35.7-0.57-.566a0.349,0.349,0,0,0-.25-0.1,0.326,0.326,0,0,0-.24.1Zm-2.93-.213h2.84l7.1-7.1a0.535,0.535,0,0,1,.39-0.164,0.576,0.576,0,0,1,.4.164l0.36,0.358,0.22-.436a0.557,0.557,0,0,1,.64-0.292h0a6.2,6.2,0,0,0,5.38-1.082,6.324,6.324,0,0,0,1.77-2.157,6.189,6.189,0,0,0,.66-2.8,6.25,6.25,0,0,0-12.5,0,6.146,6.146,0,0,0,.21,1.564,0.575,0.575,0,0,1-.29.641l-0.44.218,0.36,0.358a0.57,0.57,0,0,1,0,.792l-0.91.908a0.554,0.554,0,0,1-.4.164h-0.34v0.348a0.547,0.547,0,0,1-.17.4l-0.9.908a0.576,0.576,0,0,1-.4.164h-0.35v0.347a0.582,0.582,0,0,1-.16.4l-0.91.907a0.571,0.571,0,0,1-.4.164h-0.34v0.348a0.545,0.545,0,0,1-.17.4l-1.65,1.652v2.838Zm15.78-18.049a2.27,2.27,0,1,0,2.27,2.269A2.273,2.273,0,0,0,1531.9,126.83Zm0,3.631a1.362,1.362,0,1,1,1.36-1.362A1.362,1.362,0,0,1,1531.9,130.461Zm0,1.014a2.376,2.376,0,1,1,2.38-2.376A2.382,2.382,0,0,1,1531.9,131.475Zm0-4.539a2.163,2.163,0,1,0,2.16,2.163A2.165,2.165,0,0,0,1531.9,126.936Zm0,3.631a1.468,1.468,0,1,1,1.47-1.468A1.471,1.471,0,0,1,1531.9,130.567Zm0-2.723a1.256,1.256,0,1,0,1.26,1.255A1.253,1.253,0,0,0,1531.9,127.844Zm-7.58,8.2-6.36,6.354a0.468,0.468,0,0,0,0,.642,0.462,0.462,0,0,0,.32.133,0.429,0.429,0,0,0,.32-0.133l6.36-6.354A0.453,0.453,0,0,0,1524.32,136.041Zm-6.04,7.236a0.535,0.535,0,0,1-.39-0.164,0.547,0.547,0,0,1,0-.793l6.35-6.354a0.557,0.557,0,0,1,.79,0,0.546,0.546,0,0,1,0,.792l-6.35,6.355A0.576,0.576,0,0,1,1518.28,143.277Zm6.11-7.161-6.35,6.355a0.324,0.324,0,0,0-.1.245,0.345,0.345,0,0,0,.34.348,0.349,0.349,0,0,0,.25-0.1l6.35-6.355a0.333,0.333,0,0,0,.11-0.245,0.337,0.337,0,0,0-.11-0.246,0.346,0.346,0,0,0-.49,0h0Z" transform="translate(-1515 -124)"/>
</svg>
