<svg xmlns="http://www.w3.org/2000/svg" width="56.312" height="47.72" viewBox="0 0 56.312 47.72">
  <metadata><?xpacket begin="﻿" id="W5M0MpCehiHzreSzNTczkc9d"?>
<x:xmpmeta xmlns:x="adobe:ns:meta/" x:xmptk="Adobe XMP Core 5.6-c138 79.159824, 2016/09/14-01:09:01        ">
   <rdf:RDF xmlns:rdf="http://www.w3.org/1999/02/22-rdf-syntax-ns#">
      <rdf:Description rdf:about=""/>
   </rdf:RDF>
</x:xmpmeta>
                                                                                                    
                                                                                                    
                                                                                                    
                                                                                                    
                                                                                                    
                                                                                                    
                                                                                                    
                                                                                                    
                                                                                                    
                                                                                                    
                                                                                                    
                                                                                                    
                                                                                                    
                                                                                                    
                                                                                                    
                                                                                                    
                                                                                                    
                                                                                                    
                                                                                                    
                                                                                                    
                           
<?xpacket end="w"?></metadata>
<defs>
    <style>
      .cls-1 {
        fill: #c279ff;
        fill-rule: evenodd;
      }
    </style>
  </defs>
  <path id="Фигура_23" data-name="Фигура 23" class="cls-1" d="M583.865,4779.05a1.105,1.105,0,1,1-1.1,1.11A1.107,1.107,0,0,1,583.865,4779.05Zm43.295-8.09v-0.12a4.623,4.623,0,0,0-4.619-4.62H609.356a19.949,19.949,0,0,0,2.665-9.66c0.009-.57,0-1.16,0-1.79,0-.4-0.006-0.83-0.006-1.29a4.332,4.332,0,0,0-4.315-4.33,4.135,4.135,0,0,0-4.144,3.3,19.711,19.711,0,0,1-1.2,3.87,26.951,26.951,0,0,1-7.647,10.21,26.413,26.413,0,0,1-2.759,1.96,3.094,3.094,0,0,0-2.978-2.27H571.94a1.1,1.1,0,0,0-1.1,1.1v28.46a1.1,1.1,0,0,0,1.1,1.1h17.033a3.091,3.091,0,0,0,3.078-2.82,11.6,11.6,0,0,0,7.6,2.82h22.893a77.872,77.872,0,0,1,4.619-11.67v-0.14a4.616,4.616,0,0,1,0-7.04V4778A4.616,4.616,0,0,1,627.16,4770.96Zm-37.3-.66v23.49a0.892,0.892,0,0,1-.891.89h-4.008v-9.59a1.1,1.1,0,0,0-2.2,0v9.59H573.04v-26.26h15.933a0.892,0.892,0,0,1,.891.89v0.99h0Zm29.63,5.28h3.047a2.425,2.425,0,0,1,2.419,2.42v0.03a2.425,2.425,0,0,1-2.419,2.42h-3.047a1.1,1.1,0,1,0,0,2.2h3.047a2.425,2.425,0,0,1,2.419,2.42v0.14a2.419,2.419,0,0,1-2.42,2.42h-3.046a1.105,1.105,0,0,0,0,2.21h3.046a2.42,2.42,0,0,1,0,4.84H599.648a9.4,9.4,0,0,1-6.547-2.64l-1.037-1.01v-20.06a27.568,27.568,0,0,0,4.034-2.73,29.2,29.2,0,0,0,8.273-11.03,21.918,21.918,0,0,0,1.337-4.3,1.927,1.927,0,0,1,.5-0.95,2.042,2.042,0,0,1,1.44-.61h0.046a2.133,2.133,0,0,1,2.126,2.13c0,0.47,0,.9.006,1.31,0,0.61.009,1.19,0,1.74a17.794,17.794,0,0,1-3.377,10.15,1.1,1.1,0,0,0,.892,1.74h15.2a2.425,2.425,0,0,1,2.419,2.42v0.12h0a2.425,2.425,0,0,1-2.419,2.42h-3.047A1.1,1.1,0,1,0,619.494,4775.58Z" transform="translate(-570.844 -4749.16)"/>
</svg>
