<svg xmlns="http://www.w3.org/2000/svg" width="19" height="24" viewBox="0 0 19 24">
  <metadata><?xpacket begin="﻿" id="W5M0MpCehiHzreSzNTczkc9d"?>
<x:xmpmeta xmlns:x="adobe:ns:meta/" x:xmptk="Adobe XMP Core 5.6-c138 79.159824, 2016/09/14-01:09:01        ">
   <rdf:RDF xmlns:rdf="http://www.w3.org/1999/02/22-rdf-syntax-ns#">
      <rdf:Description rdf:about=""/>
   </rdf:RDF>
</x:xmpmeta>
                                                                                                    
                                                                                                    
                                                                                                    
                                                                                                    
                                                                                                    
                                                                                                    
                                                                                                    
                                                                                                    
                                                                                                    
                                                                                                    
                                                                                                    
                                                                                                    
                                                                                                    
                                                                                                    
                                                                                                    
                                                                                                    
                                                                                                    
                                                                                                    
                                                                                                    
                                                                                                    
                           
<?xpacket end="w"?></metadata>
<defs>
    <style>
      .cls-1 {
        fill: #fff;
        fill-rule: evenodd;
      }
    </style>
  </defs>
  <path id="Фигура_14" data-name="Фигура 14" class="cls-1" d="M1469.27,138.564l-0.33,2.809a0.464,0.464,0,0,0,.13.385,0.536,0.536,0,0,0,.39.165h2.08a0.536,0.536,0,0,0,.39-0.165,0.464,0.464,0,0,0,.13-0.385l-0.33-2.809a1.912,1.912,0,0,0,.85-1.593,2.082,2.082,0,0,0-4.16,0A1.937,1.937,0,0,0,1469.27,138.564Zm1.23-2.583a1.019,1.019,0,0,1,1.04.99,0.972,0.972,0,0,1-.59.888,0.481,0.481,0,0,0-.29.5l0.3,2.573h-0.92l0.3-2.573a0.481,0.481,0,0,0-.29-0.5,0.988,0.988,0,0,1-.59-0.888A1.019,1.019,0,0,1,1470.5,135.981Zm1.04,6.058h-2.08a0.66,0.66,0,0,1-.48-0.2,0.6,0.6,0,0,1-.16-0.475l0.32-2.743a2.029,2.029,0,0,1-.85-1.646,2.213,2.213,0,0,1,4.42,0,2.029,2.029,0,0,1-.85,1.646l0.32,2.743a0.6,0.6,0,0,1-.16.475A0.66,0.66,0,0,1,1471.54,142.039Zm-1.04-6.933a1.917,1.917,0,0,0-1.96,1.865,1.806,1.806,0,0,0,.8,1.5l0.06,0.04-0.34,2.876a0.4,0.4,0,0,0,.1.294,0.409,0.409,0,0,0,.3.127h2.08a0.409,0.409,0,0,0,.3-0.127,0.4,0.4,0,0,0,.1-0.294l-0.34-2.876,0.06-.04a1.806,1.806,0,0,0,.8-1.5A1.917,1.917,0,0,0,1470.5,135.106Zm0.6,5.942h-1.2l0.32-2.7a0.375,0.375,0,0,0-.22-0.383,1.091,1.091,0,0,1-.66-0.992,1.071,1.071,0,0,1,.34-0.782,1.183,1.183,0,0,1,.82-0.325,1.136,1.136,0,0,1,1.16,1.107,1.091,1.091,0,0,1-.66.992,0.375,0.375,0,0,0-.22.383Zm-0.92-.232h0.64l-0.28-2.444a0.6,0.6,0,0,1,.36-0.618,0.866,0.866,0,0,0,.52-0.783,0.9,0.9,0,0,0-.92-0.874,0.924,0.924,0,0,0-.65.256,0.847,0.847,0,0,0,.25,1.4,0.6,0.6,0,0,1,.36.618Zm9.18-9.787h-1.57v-1.981a7.3,7.3,0,0,0-14.58,0v1.981h-1.57a0.513,0.513,0,0,0-.52.5V143.9a2.041,2.041,0,0,0,2.09,1.981h14.58a2.041,2.041,0,0,0,2.09-1.981V131.524A0.513,0.513,0,0,0,1479.36,131.029Zm-15.11-1.981a6.258,6.258,0,0,1,12.5,0v1.981h-1.04v-1.981a5.217,5.217,0,0,0-10.42,0v1.981h-1.04v-1.981Zm10.42,0v1.981h-8.34v-1.981A4.176,4.176,0,0,1,1474.67,129.048Zm4.17,14.855a1.022,1.022,0,0,1-1.05.99h-14.58a1.022,1.022,0,0,1-1.05-.99V132.02h16.68V143.9Zm-1.05,2.1h-14.58a2.157,2.157,0,0,1-2.21-2.1V131.524a0.629,0.629,0,0,1,.64-0.611h1.44v-1.865a7.43,7.43,0,0,1,14.84,0v1.865h1.44a0.629,0.629,0,0,1,.64.611V143.9A2.157,2.157,0,0,1,1477.79,146Zm-16.15-14.855a0.391,0.391,0,0,0-.4.379V143.9a1.92,1.92,0,0,0,1.97,1.865h14.58a1.92,1.92,0,0,0,1.97-1.865V131.524a0.391,0.391,0,0,0-.4-0.379h-1.69v-2.1a7.179,7.179,0,0,0-14.34,0v2.1h-1.69Zm16.15,13.865h-14.58a1.138,1.138,0,0,1-1.17-1.107v-12h16.92v12A1.138,1.138,0,0,1,1477.79,145.01Zm-15.5-12.875V143.9a0.9,0.9,0,0,0,.92.875h14.58a0.9,0.9,0,0,0,.92-0.875V132.135h-16.42Zm14.58-.99h-1.28v-2.1a5.1,5.1,0,0,0-10.18,0v2.1h-1.28v-2.1a6.378,6.378,0,0,1,12.74,0v2.1Zm-1.04-.232h0.8v-1.865a6.138,6.138,0,0,0-12.26,0v1.865h0.8v-1.865a5.337,5.337,0,0,1,10.66,0v1.865Zm-1.04.232h-8.58v-2.1a4.3,4.3,0,0,1,8.58,0v2.1Zm-8.34-.232h8.1v-1.865a4.055,4.055,0,0,0-8.1,0v1.865Z" transform="translate(-1461 -122)"/>
</svg>
